<?xml version="1.0" encoding="UTF-8" standalone="no"?>
<!-- Generator: Adobe Illustrator 18.1.0, SVG Export Plug-In . SVG Version: 6.00 Build 0)  -->

<svg
   xmlns:dc="http://purl.org/dc/elements/1.1/"
   xmlns:cc="http://creativecommons.org/ns#"
   xmlns:rdf="http://www.w3.org/1999/02/22-rdf-syntax-ns#"
   xmlns:svg="http://www.w3.org/2000/svg"
   xmlns="http://www.w3.org/2000/svg"
   xmlns:sodipodi="http://sodipodi.sourceforge.net/DTD/sodipodi-0.dtd"
   xmlns:inkscape="http://www.inkscape.org/namespaces/inkscape"
   version="1.1"
   id="Layer_1"
   x="0px"
   y="0px"
   viewBox="-362.4 459.1 35 35"
   enable-background="new -362.4 459.1 500 500"
   xml:space="preserve"
   sodipodi:docname="adobe_logo.svg"
   width="35"
   height="35"
   inkscape:version="0.92.4 (5da689c313, 2019-01-14)"><metadata
   id="metadata16"><rdf:RDF><cc:Work
       rdf:about=""><dc:format>image/svg+xml</dc:format><dc:type
         rdf:resource="http://purl.org/dc/dcmitype/StillImage" /><dc:title></dc:title></cc:Work></rdf:RDF></metadata><defs
   id="defs14" /><sodipodi:namedview
   pagecolor="#ffffff"
   bordercolor="#666666"
   borderopacity="1"
   objecttolerance="10"
   gridtolerance="10"
   guidetolerance="10"
   inkscape:pageopacity="0"
   inkscape:pageshadow="2"
   inkscape:window-width="1920"
   inkscape:window-height="1017"
   id="namedview12"
   showgrid="false"
   inkscape:pagecheckerboard="true"
   fit-margin-top="0"
   fit-margin-left="0"
   fit-margin-right="0"
   fit-margin-bottom="0"
   inkscape:zoom="3.776"
   inkscape:cx="-141.46516"
   inkscape:cy="35.565247"
   inkscape:window-x="-8"
   inkscape:window-y="-8"
   inkscape:window-maximized="1"
   inkscape:current-layer="Layer_1" />
<radialGradient
   id="SVGID_1_"
   cx="-1002.9115"
   cy="1088.6691"
   r="0.63749999"
   gradientTransform="matrix(545.6736,0,0,-528.3113,547071.63,575749.06)"
   gradientUnits="userSpaceOnUse">
	<stop
   offset="0"
   style="stop-color:#423325;stop-opacity:0.98"
   id="stop2" />
	<stop
   offset="1"
   style="stop-color:#1C0A00"
   id="stop4" />
</radialGradient>
<path
   d="m -360.71312,460.82376 h 31.61933 v 31.55248 h -31.61933 z"
   id="path7"
   style="fill:none;stroke-width:0.49989945;stroke-miterlimit:4;stroke-dasharray:none"
   inkscape:connector-curvature="0" />
<path
   d="m -360.71312,460.82376 h 31.61933 v 31.55248 h -31.61933 z m -1.43693,33.02629 h 34.5001 v -34.5001 h -34.5001 z m 22.59708,-22.19939 c 0,-0.12048 0.0414,-0.17714 0.1727,-0.17714 h 2.25902 c 0.11743,0 0.17272,0.0425 0.17272,0.17714 v 11.63467 c 0,0.12046 -0.0276,0.17714 -0.17272,0.17714 h -2.23138 c -0.14507,0 -0.18653,-0.071 -0.18653,-0.19132 v -11.62049 h -0.0138 z m -0.15889,-3.35152 c 0,-0.9424 0.64938,-1.50215 1.46455,-1.50215 0.87738,0 1.46457,0.60228 1.46457,1.50215 0,0.97073 -0.61484,1.50216 -1.49219,1.50216 -0.82902,0.007 -1.43693,-0.52433 -1.43693,-1.50216 z m -6.46617,8.19812 c -0.40068,-1.63679 -1.35404,-5.20088 -1.71327,-6.9298 h -0.0276 c -0.30396,1.72183 -1.06389,4.64113 -1.66492,6.9298 h 3.4058 z m -3.993,2.38786 -1.13298,4.42146 c -0.0276,0.12048 -0.069,0.1488 -0.21416,0.1488 h -2.11393 c -0.14508,0 -0.17271,-0.0425 -0.14508,-0.21966 l 4.0828,-14.65314 c 0.069,-0.26218 0.11745,-0.5031 0.14508,-1.22584 0,-0.10626 0.0414,-0.14878 0.11743,-0.14878 h 3.01894 c 0.10364,0 0.14507,0.0283 0.1727,0.14878 l 4.5733,15.90733 c 0.0276,0.12048 0,0.19131 -0.11744,0.19131 h -2.38336 c -0.11744,0 -0.18652,-0.0283 -0.21415,-0.13455 l -1.18134,-4.43564 h -4.60783 z"
   id="path9"
   inkscape:connector-curvature="0"
   style="fill:#ffffff;stroke:#ffffff;stroke-width:0.49989945;stroke-miterlimit:4;stroke-dasharray:none" />
</svg>