<?xml version="1.0" encoding="UTF-8" standalone="no"?>
<!-- Generator: Adobe Illustrator 19.0.0, SVG Export Plug-In . SVG Version: 6.00 Build 0)  -->

<svg
   xmlns:dc="http://purl.org/dc/elements/1.1/"
   xmlns:cc="http://creativecommons.org/ns#"
   xmlns:rdf="http://www.w3.org/1999/02/22-rdf-syntax-ns#"
   xmlns:svg="http://www.w3.org/2000/svg"
   xmlns="http://www.w3.org/2000/svg"
   xmlns:sodipodi="http://sodipodi.sourceforge.net/DTD/sodipodi-0.dtd"
   xmlns:inkscape="http://www.inkscape.org/namespaces/inkscape"
   version="1.1"
   id="Capa_1"
   x="0px"
   y="0px"
   viewBox="0 0 28.000002 35"
   xml:space="preserve"
   sodipodi:docname="code_logo.svg"
   width="28.000002"
   height="35"
   inkscape:version="0.92.4 (5da689c313, 2019-01-14)"><metadata
   id="metadata133"><rdf:RDF><cc:Work
       rdf:about=""><dc:format>image/svg+xml</dc:format><dc:type
         rdf:resource="http://purl.org/dc/dcmitype/StillImage" /><dc:title></dc:title></cc:Work></rdf:RDF></metadata><defs
   id="defs131" /><sodipodi:namedview
   pagecolor="#ffffff"
   bordercolor="#666666"
   borderopacity="1"
   objecttolerance="10"
   gridtolerance="10"
   guidetolerance="10"
   inkscape:pageopacity="0"
   inkscape:pageshadow="2"
   inkscape:window-width="1920"
   inkscape:window-height="1017"
   id="namedview129"
   showgrid="false"
   inkscape:pagecheckerboard="true"
   fit-margin-top="0"
   fit-margin-left="0"
   fit-margin-right="0"
   fit-margin-bottom="0"
   inkscape:zoom="5.5625733"
   inkscape:cx="52.935293"
   inkscape:cy="-4.067795"
   inkscape:window-x="-8"
   inkscape:window-y="-8"
   inkscape:window-maximized="1"
   inkscape:current-layer="Capa_1" />
<g
   id="g6"
   transform="matrix(0.07291667,0,0,0.07291667,-3.5000002,0)"
   style="fill:#ffffff">
	<g
   id="g4"
   style="fill:#ffffff">
		<path
   d="M 392,0 H 88 C 65.92,0.026 48.026,17.92 48,40 v 216 c 0.026,22.08 17.92,39.974 40,40 h 109.392 l -11.424,40 H 160 v 16 H 320 V 336 H 294.032 L 282.608,296 H 392 c 22.08,-0.026 39.974,-17.92 40,-40 V 40 C 431.974,17.92 414.08,0.026 392,0 Z m -189.392,336 11.424,-40 h 51.936 l 11.424,40 z M 416,256 c 0,13.255 -10.745,24 -24,24 H 88 C 74.745,280 64,269.255 64,256 v -16 h 352 z m 0,-32 H 64 V 40 C 64,26.745 74.745,16 88,16 h 304 c 13.255,0 24,10.745 24,24 z"
   id="path2"
   inkscape:connector-curvature="0"
   style="fill:#ffffff" />
	</g>
</g>
<g
   id="g12"
   transform="matrix(0.07291667,0,0,0.07291667,-3.5000002,0)"
   style="fill:#ffffff">
	<g
   id="g10"
   style="fill:#ffffff">
		<path
   d="M 304,368 H 80 c -4.418,0 -8,3.582 -8,8 v 96 c 0,4.418 3.582,8 8,8 h 224 c 4.418,0 8,-3.582 8,-8 v -96 c 0,-4.418 -3.582,-8 -8,-8 z m -8,96 H 88 v -80 h 208 z"
   id="path8"
   inkscape:connector-curvature="0"
   style="fill:#ffffff" />
	</g>
</g>
<g
   id="g18"
   transform="matrix(0.07291667,0,0,0.07291667,-3.5000002,0)"
   style="fill:#ffffff">
	<g
   id="g16"
   style="fill:#ffffff">
		<rect
   x="104"
   y="432"
   width="16"
   height="16"
   id="rect14"
   style="fill:#ffffff" />
	</g>
</g>
<g
   id="g24"
   transform="matrix(0.07291667,0,0,0.07291667,-3.5000002,0)"
   style="fill:#ffffff">
	<g
   id="g22"
   style="fill:#ffffff">
		<rect
   x="104"
   y="400"
   width="16"
   height="16"
   id="rect20"
   style="fill:#ffffff" />
	</g>
</g>
<g
   id="g30"
   transform="matrix(0.07291667,0,0,0.07291667,-3.5000002,0)"
   style="fill:#ffffff">
	<g
   id="g28"
   style="fill:#ffffff">
		<rect
   x="136"
   y="400"
   width="16"
   height="16"
   id="rect26"
   style="fill:#ffffff" />
	</g>
</g>
<g
   id="g36"
   transform="matrix(0.07291667,0,0,0.07291667,-3.5000002,0)"
   style="fill:#ffffff">
	<g
   id="g34"
   style="fill:#ffffff">
		<rect
   x="168"
   y="400"
   width="16"
   height="16"
   id="rect32"
   style="fill:#ffffff" />
	</g>
</g>
<g
   id="g42"
   transform="matrix(0.07291667,0,0,0.07291667,-3.5000002,0)"
   style="fill:#ffffff">
	<g
   id="g40"
   style="fill:#ffffff">
		<rect
   x="232"
   y="400"
   width="16"
   height="16"
   id="rect38"
   style="fill:#ffffff" />
	</g>
</g>
<g
   id="g48"
   transform="matrix(0.07291667,0,0,0.07291667,-3.5000002,0)"
   style="fill:#ffffff">
	<g
   id="g46"
   style="fill:#ffffff">
		<rect
   x="200"
   y="400"
   width="16"
   height="16"
   id="rect44"
   style="fill:#ffffff" />
	</g>
</g>
<g
   id="g54"
   transform="matrix(0.07291667,0,0,0.07291667,-3.5000002,0)"
   style="fill:#ffffff">
	<g
   id="g52"
   style="fill:#ffffff">
		<rect
   x="264"
   y="432"
   width="16"
   height="16"
   id="rect50"
   style="fill:#ffffff" />
	</g>
</g>
<g
   id="g60"
   transform="matrix(0.07291667,0,0,0.07291667,-3.5000002,0)"
   style="fill:#ffffff">
	<g
   id="g58"
   style="fill:#ffffff">
		<rect
   x="264"
   y="400"
   width="16"
   height="16"
   id="rect56"
   style="fill:#ffffff" />
	</g>
</g>
<g
   id="g66"
   transform="matrix(0.07291667,0,0,0.07291667,-3.5000002,0)"
   style="fill:#ffffff">
	<g
   id="g64"
   style="fill:#ffffff">
		<rect
   x="136"
   y="432"
   width="112"
   height="16"
   id="rect62"
   style="fill:#ffffff" />
	</g>
</g>
<g
   id="g72"
   transform="matrix(0.07291667,0,0,0.07291667,-3.5000002,0)"
   style="fill:#ffffff">
	<g
   id="g70"
   style="fill:#ffffff">
		<path
   d="m 368,368 c -22.091,0 -40,17.909 -40,40 v 32 c 0,22.091 17.909,40 40,40 22.091,0 40,-17.909 40,-40 v -32 c 0,-22.091 -17.909,-40 -40,-40 z m 24,72 c 0,13.255 -10.745,24 -24,24 -13.255,0 -24,-10.745 -24,-24 v -32 c 0,-13.255 10.745,-24 24,-24 13.255,0 24,10.745 24,24 z"
   id="path68"
   inkscape:connector-curvature="0"
   style="fill:#ffffff" />
	</g>
</g>
<g
   id="g78"
   transform="matrix(0.07291667,0,0,0.07291667,-3.5000002,0)"
   style="fill:#ffffff">
	<g
   id="g76"
   style="fill:#ffffff">
		<rect
   x="360"
   y="400"
   width="16"
   height="16"
   id="rect74"
   style="fill:#ffffff" />
	</g>
</g>
<g
   id="g84"
   transform="matrix(0.07291667,0,0,0.07291667,-3.5000002,0)"
   style="fill:#ffffff">
	<g
   id="g82"
   style="fill:#ffffff">
		
			<rect
   x="181.737"
   y="120.139"
   transform="matrix(0.2751,-0.9614,0.9614,0.2751,50.7457,323.5759)"
   width="116.43"
   height="15.993"
   id="rect80"
   style="fill:#ffffff" />
	</g>
</g>
<g
   id="g90"
   transform="matrix(0.07291667,0,0,0.07291667,-3.5000002,0)"
   style="fill:#ffffff">
	<g
   id="g88"
   style="fill:#ffffff">
		<path
   d="m 197.12,94.144 -10.24,-12.288 -48,40 c -3.393,2.83 -3.85,7.874 -1.02,11.268 0.309,0.37 0.65,0.712 1.02,1.02 l 48,40 10.24,-12.288 L 156.496,128 Z"
   id="path86"
   inkscape:connector-curvature="0"
   style="fill:#ffffff" />
	</g>
</g>
<g
   id="g96"
   transform="matrix(0.07291667,0,0,0.07291667,-3.5000002,0)"
   style="fill:#ffffff">
	<g
   id="g94"
   style="fill:#ffffff">
		<path
   d="m 342.14,122.876 c -0.309,-0.37 -0.65,-0.712 -1.02,-1.02 l -48,-40 -10.24,12.288 40.624,33.856 -40.624,33.856 10.24,12.288 48,-40 c 3.393,-2.83 3.85,-7.874 1.02,-11.268 z"
   id="path92"
   inkscape:connector-curvature="0"
   style="fill:#ffffff" />
	</g>
</g>
<g
   id="g98"
   transform="translate(4e-8,-445)">
</g>
<g
   id="g100"
   transform="translate(4e-8,-445)">
</g>
<g
   id="g102"
   transform="translate(4e-8,-445)">
</g>
<g
   id="g104"
   transform="translate(4e-8,-445)">
</g>
<g
   id="g106"
   transform="translate(4e-8,-445)">
</g>
<g
   id="g108"
   transform="translate(4e-8,-445)">
</g>
<g
   id="g110"
   transform="translate(4e-8,-445)">
</g>
<g
   id="g112"
   transform="translate(4e-8,-445)">
</g>
<g
   id="g114"
   transform="translate(4e-8,-445)">
</g>
<g
   id="g116"
   transform="translate(4e-8,-445)">
</g>
<g
   id="g118"
   transform="translate(4e-8,-445)">
</g>
<g
   id="g120"
   transform="translate(4e-8,-445)">
</g>
<g
   id="g122"
   transform="translate(4e-8,-445)">
</g>
<g
   id="g124"
   transform="translate(4e-8,-445)">
</g>
<g
   id="g126"
   transform="translate(4e-8,-445)">
</g>
</svg>