<?xml version="1.0" encoding="UTF-8" standalone="no"?>
<!-- Generator: Adobe Illustrator 18.0.0, SVG Export Plug-In . SVG Version: 6.00 Build 0)  -->

<svg
   xmlns:dc="http://purl.org/dc/elements/1.1/"
   xmlns:cc="http://creativecommons.org/ns#"
   xmlns:rdf="http://www.w3.org/1999/02/22-rdf-syntax-ns#"
   xmlns:svg="http://www.w3.org/2000/svg"
   xmlns="http://www.w3.org/2000/svg"
   xmlns:sodipodi="http://sodipodi.sourceforge.net/DTD/sodipodi-0.dtd"
   xmlns:inkscape="http://www.inkscape.org/namespaces/inkscape"
   version="1.1"
   id="Capa_1"
   x="0px"
   y="0px"
   viewBox="0 0 30.7799 35"
   xml:space="preserve"
   sodipodi:docname="css3_logo.svg"
   width="30.7799"
   height="35"
   inkscape:version="0.92.4 (5da689c313, 2019-01-14)"><metadata
   id="metadata39"><rdf:RDF><cc:Work
       rdf:about=""><dc:format>image/svg+xml</dc:format><dc:type
         rdf:resource="http://purl.org/dc/dcmitype/StillImage" /><dc:title></dc:title></cc:Work></rdf:RDF></metadata><defs
   id="defs37" /><sodipodi:namedview
   pagecolor="#ffffff"
   bordercolor="#666666"
   borderopacity="1"
   objecttolerance="10"
   gridtolerance="10"
   guidetolerance="10"
   inkscape:pageopacity="0"
   inkscape:pageshadow="2"
   inkscape:window-width="1920"
   inkscape:window-height="1017"
   id="namedview35"
   showgrid="false"
   inkscape:pagecheckerboard="true"
   fit-margin-top="0"
   fit-margin-left="0"
   fit-margin-right="0"
   fit-margin-bottom="0"
   inkscape:zoom="2.8362448"
   inkscape:cx="-4.2460641"
   inkscape:cy="9.6993443"
   inkscape:window-x="-8"
   inkscape:window-y="-8"
   inkscape:window-maximized="1"
   inkscape:current-layer="Capa_1" />
<path
   d="M 29.639111,0 H 1.1394317 C 0.4567564,0 -0.055416,0.5776811 0.0048133,1.260292 l 2.6031014,29.170746 c 0.060298,0.682079 0.6502555,1.395994 1.3119603,1.580318 l 10.261758,2.850494 c 0.660815,0.183133 1.740928,0.184323 2.402709,0.0028 l 10.274475,-2.846476 c 0.661854,-0.183806 1.251805,-0.891253 1.312034,-1.574522 L 30.775068,1.260712 C 30.835298,0.5781011 30.325281,4.2e-4 29.639111,4.2e-4 Z m -4.942606,10.529817 c -4.47e-4,0.0042 -0.0039,0.0084 -0.0083,0.0084 -0.0045,7.42e-4 -0.0088,-0.0014 -0.01064,-0.0056 l -8.039773,3.294699 c -0.114505,0.0469 -0.179796,0.168336 -0.156001,0.289772 0.02394,0.12138 0.130423,0.209019 0.254228,0.209019 h 6.253674 c 0.332674,0 0.649586,0.141274 0.872063,0.388668 0.222403,0.247379 0.329328,0.577597 0.294009,0.908346 l -0.97713,9.166248 c -0.04796,0.449708 -0.350149,0.831767 -0.776811,0.981889 l -6.637805,2.33556 c -0.24999,0.08806 -0.522509,0.08876 -0.773093,0.0014 L 8.3841278,25.819656 C 7.9548633,25.670934 7.6501468,25.287769 7.6018888,24.836045 L 7.1589421,20.684828 C 7.1356742,20.46689 7.20608,20.249316 7.3525688,20.086399 7.4991276,19.923411 7.7079233,19.830311 7.9271279,19.830311 h 1.8384855 c 0.3950596,0 0.7263976,0.297948 0.7681856,0.690703 l 0.271776,2.55165 4.574538,1.590132 4.595506,-1.604636 0.562067,-5.292006 H 7.5442621 c -0.3938712,0 -0.7246864,-0.296309 -0.7678876,-0.687805 L 6.5289879,14.835441 c -0.037772,-0.342118 0.155257,-0.667883 0.4733575,-0.798979 l 8.3159016,-3.428539 c 0.09436,-0.03892 0.147971,-0.138879 0.128198,-0.238979 -0.01985,-0.09996 -0.10752,-0.172074 -0.209465,-0.172074 H 6.481479 c -0.2635972,0 -0.4846611,-0.1990517 -0.5121738,-0.4610893 L 5.7160442,7.3250405 C 5.7007982,7.1799727 5.7478662,7.0351989 5.845502,6.9267131 5.943138,6.8183533 6.0822556,6.7563614 6.2281438,6.7563614 H 24.548231 c 0.146706,0 0.286424,0.06258 0.38413,0.1719897 0.09771,0.1094798 0.144104,0.2553456 0.127526,0.4010854 z"
   id="path2"
   style="fill:#ffffff;stroke-width:0.07435734"
   inkscape:connector-curvature="0" />
<g
   id="g4"
   transform="translate(0,-435.69933)">
</g>
<g
   id="g6"
   transform="translate(0,-435.69933)">
</g>
<g
   id="g8"
   transform="translate(0,-435.69933)">
</g>
<g
   id="g10"
   transform="translate(0,-435.69933)">
</g>
<g
   id="g12"
   transform="translate(0,-435.69933)">
</g>
<g
   id="g14"
   transform="translate(0,-435.69933)">
</g>
<g
   id="g16"
   transform="translate(0,-435.69933)">
</g>
<g
   id="g18"
   transform="translate(0,-435.69933)">
</g>
<g
   id="g20"
   transform="translate(0,-435.69933)">
</g>
<g
   id="g22"
   transform="translate(0,-435.69933)">
</g>
<g
   id="g24"
   transform="translate(0,-435.69933)">
</g>
<g
   id="g26"
   transform="translate(0,-435.69933)">
</g>
<g
   id="g28"
   transform="translate(0,-435.69933)">
</g>
<g
   id="g30"
   transform="translate(0,-435.69933)">
</g>
<g
   id="g32"
   transform="translate(0,-435.69933)">
</g>
</svg>