<?xml version="1.0" encoding="UTF-8" standalone="no"?>
<svg
   xmlns:dc="http://purl.org/dc/elements/1.1/"
   xmlns:cc="http://creativecommons.org/ns#"
   xmlns:rdf="http://www.w3.org/1999/02/22-rdf-syntax-ns#"
   xmlns:svg="http://www.w3.org/2000/svg"
   xmlns="http://www.w3.org/2000/svg"
   xmlns:sodipodi="http://sodipodi.sourceforge.net/DTD/sodipodi-0.dtd"
   xmlns:inkscape="http://www.inkscape.org/namespaces/inkscape"
   height="26.250008pt"
   viewBox="0 -33 30.183796 26.250008"
   width="30.183758pt"
   version="1.1"
   id="svg8"
   sodipodi:docname="drums_logo.svg"
   inkscape:version="0.92.4 (5da689c313, 2019-01-14)">
  <metadata
     id="metadata14">
    <rdf:RDF>
      <cc:Work
         rdf:about="">
        <dc:format>image/svg+xml</dc:format>
        <dc:type
           rdf:resource="http://purl.org/dc/dcmitype/StillImage" />
        <dc:title></dc:title>
      </cc:Work>
    </rdf:RDF>
  </metadata>
  <defs
     id="defs12" />
  <sodipodi:namedview
     pagecolor="#ffffff"
     bordercolor="#666666"
     borderopacity="1"
     objecttolerance="10"
     gridtolerance="10"
     guidetolerance="10"
     inkscape:pageopacity="0"
     inkscape:pageshadow="2"
     inkscape:window-width="1920"
     inkscape:window-height="1017"
     id="namedview10"
     showgrid="false"
     inkscape:pagecheckerboard="true"
     fit-margin-top="0"
     fit-margin-left="0"
     fit-margin-right="0"
     fit-margin-bottom="0"
     inkscape:zoom="3.9111844"
     inkscape:cx="-18.88188"
     inkscape:cy="42.141774"
     inkscape:window-x="-8"
     inkscape:window-y="-8"
     inkscape:window-maximized="1"
     inkscape:current-layer="svg8" />
  <path
     d="m 22.024822,-14.481445 h 1.366507 c 0.731383,0 1.326438,-0.59505 1.326438,-1.32644 v -2.96951 c 0,-0.73139 -0.595055,-1.32644 -1.326438,-1.32644 h -0.574098 v -2.8272 c 0,-0.005 2.3e-4,-0.0101 2.3e-4,-0.0152 0,-0.005 -2.3e-4,-0.0101 -2.3e-4,-0.0152 v -0.73138 c 0,-0.73162 -0.595055,-1.32644 -1.326438,-1.32644 h -1.906524 c -0.244331,0 -0.442145,0.19781 -0.442145,0.44215 0,0.2441 0.197814,0.44214 0.442145,0.44214 h 1.906524 c 0.243641,0 0.442146,0.19828 0.442146,0.44215 v 0.30443 h -5.430795 v -0.30443 c 0,-0.24387 0.198275,-0.44215 0.442146,-0.44215 h 0.807147 c 0.244101,0 0.442145,-0.19804 0.442145,-0.44214 0,-0.24434 -0.198044,-0.44215 -0.442145,-0.44215 H 16.94429 c -0.731383,0 -1.326437,0.59482 -1.326437,1.32644 v 1.70963 h -1.051709 v -1.70963 c 0,-0.73162 -0.595054,-1.32644 -1.326437,-1.32644 H 8.6932035 c -0.7313829,0 -1.3264375,0.59482 -1.3264375,1.32644 v 0.73138 c -2.304e-4,0.005 -2.304e-4,0.01 -2.304e-4,0.0152 0,0.005 0,0.0101 2.304e-4,0.0152 v 2.8272 H 5.3623714 c -0.7313829,0 -1.3264376,0.59505 -1.3264376,1.32644 v 2.12345 c 0,0.24433 0.1980445,0.44214 0.4421459,0.44214 0.2443316,0 0.4421459,-0.19781 0.4421459,-0.44214 v -0.90134 h 4.3470767 c -0.7260865,1.10007 -1.1488884,2.41707 -1.1488884,3.83101 0,0.92367 0.1805429,1.80612 0.5082374,2.61373 H 5.3623714 c -0.2438711,0 -0.4421458,-0.1985 -0.4421458,-0.44214 v -3.26774 c 0,-0.24433 -0.1978143,-0.44214 -0.4421459,-0.44214 -0.2441014,0 -0.4421459,0.19781 -0.4421459,0.44214 v 3.26774 c 0,0.73138 0.5950547,1.32643 1.3264376,1.32643 h 3.6983658 c 0.026022,0.0445 0.052505,0.0889 0.079218,0.13288 l -0.6146288,2.1395702 c -0.082672,0.28739 -0.026943,0.58907 0.1529088,0.82764 0.1796218,0.23881 0.4541206,0.37559 0.7530297,0.37559 0.330458,0 0.6408811,-0.17639 0.8092191,-0.45941 l 0.593903,-0.9946 c 1.178595,0.91123 2.655869,1.45401 4.257496,1.45401 1.601628,0 3.078901,-0.54278 4.257496,-1.45401 l 0.593443,0.99391 c 0.168798,0.28394 0.478991,0.4601 0.80968,0.4601 0.298678,0 0.573408,-0.13678 0.753029,-0.37536 0.179622,-0.2388 0.235581,-0.54048 0.152909,-0.82787 l -0.614629,-2.1395702 c 0.64802,-1.05816 1.021772,-2.30169 1.021772,-3.6309 0,-0.25584 -0.01382,-0.50846 -0.04076,-0.75717 z m 1.366507,-0.88429 h -1.520797 c -0.191366,-0.7908 -0.51814,-1.52909 -0.953838,-2.18955 h 2.916781 v 1.7474 c 0,0.24387 -0.198275,0.44215 -0.442146,0.44215 z m 0.442146,-3.41166 v 0.33782 h -3.607864 c -0.06586,-0.0716 -0.133104,-0.14162 -0.201729,-0.21048 h 1.466911 c 0.450206,0 0.848828,-0.22544 1.088554,-0.56949 h 0.811982 c 0.243871,0 0.442146,0.19851 0.442146,0.44215 z m -7.331331,-3.72669 h 5.430565 v 2.5276 c 0,0.24387 -0.198275,0.44214 -0.442146,0.44214 H 18.945 c -0.729771,-0.48567 -1.555801,-0.83754 -2.442856,-1.02039 v -0.54416 h 1.258274 c 0.244101,0 0.442146,-0.19804 0.442146,-0.44215 0,-0.24433 -0.198045,-0.44214 -0.442146,-0.44214 h -1.258274 z m -0.884291,1.40519 v 0.4205 c -0.173635,-0.0129 -0.348881,-0.0196 -0.525739,-0.0196 -0.177089,0 -0.352335,0.007 -0.52597,0.0196 v -0.4205 z m -3.194274,0 h 1.258273 v 0.54416 c -0.887055,0.18308 -1.713084,0.53495 -2.442855,1.02039 H 8.6932035 c -0.2438711,0 -0.4421458,-0.19827 -0.4421458,-0.44214 v -2.5276 h 5.4307943 v 0.5209 h -1.258273 c -0.244101,0 -0.442146,0.19781 -0.442146,0.44214 0,0.24411 0.198045,0.44215 0.442146,0.44215 z m -3.7303755,-3.03607 h 4.5465035 c 0.243871,0 0.442145,0.19828 0.442145,0.44215 v 0.30443 H 8.2510577 v -0.30443 c 0,-0.24387 0.1982747,-0.44215 0.4421458,-0.44215 z m -3.7729779,5.69539 v -0.33782 c 0,-0.24387 0.1982747,-0.44215 0.4421458,-0.44215 h 2.2422782 c 0.239726,0.34405 0.6383481,0.56949 1.0885539,0.56949 h 1.4669115 c -0.06863,0.0689 -0.135868,0.13886 -0.2017296,0.21048 z m 4.5607805,10.7768502 c -0.020035,0.0336 -0.07254,0.0364 -0.096259,0.005 -0.011744,-0.0157 -0.014968,-0.0329 -0.00944,-0.0516 l 0.4246442,-1.47796 c 0.1149119,0.13402 0.2348907,0.26344 0.3597047,0.38825 z m 11.3276849,-0.0467 c 0.0053,0.0186 0.0021,0.0361 -0.0094,0.0516 -0.02372,0.0315 -0.07599,0.0295 -0.09672,-0.005 l -0.678187,-1.13576 c 0.124814,-0.12482 0.244792,-0.25447 0.359704,-0.38849 z m -5.716577,0.0746 c -3.357776,0 -6.0894084,-2.7316302 -6.0894084,-6.0894102 0,-3.35823 2.7323234,-6.0894 6.0894084,-6.0894 3.352248,0 6.089407,2.7261 6.089407,6.0894 -2.3e-4,3.35778 -2.731862,6.0894102 -6.089407,6.0894102 z m 0,0"
     id="path2"
     inkscape:connector-curvature="0"
     style="fill:#ffffff;stroke-width:0.05895278" />
  <path
     d="m 3.11756,-11.309965 v -11.22798 c 0,-0.35533 0.093956,-0.70582 0.2719658,-1.01394 l 3.1804564,-5.50886 0.3924045,0.2266 c 0.211401,0.12205 0.4817548,0.0495 0.6038054,-0.16189 0.1220507,-0.2114 0.049741,-0.48175 -0.1616596,-0.60404 l -0.7682284,-0.44329 c -0.0023,-0.002 -0.00461,-0.003 -0.00714,-0.004 -0.0023,-0.001 -0.00461,-0.003 -0.00691,-0.004 l -3.0337654,-1.75177 c -0.052274,-0.0302 -0.071388,-0.0767 -0.078297,-0.10179 -0.00668,-0.0251 -0.013356,-0.0751 0.016811,-0.12735 0.046287,-0.0804 0.1492242,-0.10777 0.2293632,-0.0615 l 2.27613,1.31423 c 0.1920571,0.11077 0.4361584,0.0624 0.5713353,-0.1133 0.1365587,-0.17755 0.3857262,-0.22683 0.5798559,-0.11491 0.1938994,0.11215 0.2756503,0.35256 0.1902148,0.55959 -0.084514,0.20472 -0.00415,0.44053 0.1876817,0.5513 l 2.2761301,1.31423 c 0.052505,0.0302 0.071388,0.0767 0.078297,0.10202 0.00668,0.0249 0.013357,0.0748 -0.016811,0.12734 -0.046518,0.0801 -0.1492242,0.10755 -0.2293632,0.0613 l -0.5858432,-0.33829 c -0.2114011,-0.12205 -0.4817548,-0.0495 -0.6040358,0.16189 -0.1220506,0.2114 -0.049511,0.48199 0.1618899,0.60404 l 0.5858433,0.33829 c 0.1653441,0.0953 0.345887,0.1407 0.5243573,0.1407 0.363849,0 0.718257,-0.18883 0.912847,-0.52574 0.140704,-0.24341 0.17801,-0.52712 0.10524,-0.7984 -0.07277,-0.2715 -0.246865,-0.49833 -0.490275,-0.63903 l -1.9935715,-1.15097 c 0.031549,-0.3574 -0.083363,-0.7148 -0.3154896,-0.98699 l 0.1616596,-0.2798 c 0.1220507,-0.21163 0.049511,-0.48198 -0.1621201,-0.60404 -0.2116313,-0.12205 -0.4817548,-0.0495 -0.6038055,0.16189 l -0.1614293,0.2798 c -0.3518744,-0.0652 -0.7191778,0.014 -1.0130206,0.22015 l -1.9935712,-1.15119 c -0.5024803,-0.28993 -1.1472764,-0.11721 -1.4372043,0.38527 -0.1407037,0.24341 -0.1780098,0.52689 -0.1050096,0.79839 0.072539,0.27128 0.2466345,0.49834 0.490045,0.63881 l 2.6579413,1.53438 -3.1804564,5.50864 c -0.2556156,0.44237 -0.3905622,0.946 -0.3905622,1.45631 v 11.22936 l -2.17710777,3.9003202 c -0.11905696,0.21325 -0.04260258,0.48268 0.17064066,0.6015 0.0681641,0.0382 0.14208539,0.0562 0.21508556,0.0562 0.15498132,0 0.30535695,-0.0815 0.38641703,-0.2266 l 1.84734072,-3.3098702 1.8475709,3.3098702 c 0.119057,0.21325 0.3882593,0.2897 0.6015026,0.17064 0.2132432,-0.11905 0.2894674,-0.38848 0.1706407,-0.60173 z m 0,0"
     id="path4"
     inkscape:connector-curvature="0"
     style="fill:#ffffff;stroke-width:0.05895278" />
  <path
     d="m 29.131626,-27.829645 h -2.301922 c -0.151527,-0.32539 -0.429941,-0.57755 -0.767307,-0.69707 v -0.32332 c 0,-0.2441 -0.197814,-0.44214 -0.442146,-0.44214 -0.244332,0 -0.442146,0.19804 -0.442146,0.44214 v 0.32355 c -0.337136,0.11952 -0.615319,0.37168 -0.766846,0.69684 h -2.301922 c -0.580086,0 -1.052169,0.47208 -1.052169,1.05217 0,0.58009 0.472083,1.05217 1.052169,1.05217 h 3.068768 v 14.41649 l -2.177108,3.9005502 c -0.119056,0.21325 -0.04283,0.48268 0.170411,0.6015 0.213243,0.11906 0.482676,0.0428 0.601733,-0.17064 l 1.84734,-3.3098702 1.847571,3.3098702 c 0.08083,0.14508 0.231436,0.22683 0.386417,0.22683 0.073,0 0.146922,-0.0182 0.215086,-0.0562 0.213243,-0.11905 0.289467,-0.38825 0.170641,-0.6015 l -2.177799,-3.9017002 v -14.41534 h 3.069229 c 0.580317,0 1.052169,-0.47185 1.052169,-1.05217 0,-0.58009 -0.471852,-1.05217 -1.052169,-1.05217 z m 0,1.22005 h -3.496867 c -0.0048,-2.3e-4 -0.0097,-2.3e-4 -0.01451,-2.3e-4 -0.0048,0 -0.0097,2.3e-4 -0.01451,2.3e-4 h -3.496406 c -0.09234,0 -0.167647,-0.0753 -0.167647,-0.16788 0,-0.0926 0.07507,-0.16765 0.167647,-0.16765 h 2.628465 c 0.221533,0 0.408985,-0.16419 0.438231,-0.38388 0.02925,-0.21946 0.216467,-0.3855 0.43731,-0.38918 h 0.0069 0.0074 c 0.220843,0.003 0.408294,0.16949 0.43754,0.38918 0.02925,0.21969 0.216698,0.38365 0.438231,0.38365 h 2.628465 c 0.09234,0 0.167647,0.0753 0.167647,0.16788 0,0.0926 -0.0753,0.16788 -0.167877,0.16788 z m 0,0"
     id="path6"
     inkscape:connector-curvature="0"
     style="fill:#ffffff;stroke-width:0.05895278" />
</svg>
