<?xml version="1.0" encoding="UTF-8" standalone="no"?>
<svg
   xmlns:dc="http://purl.org/dc/elements/1.1/"
   xmlns:cc="http://creativecommons.org/ns#"
   xmlns:rdf="http://www.w3.org/1999/02/22-rdf-syntax-ns#"
   xmlns:svg="http://www.w3.org/2000/svg"
   xmlns="http://www.w3.org/2000/svg"
   xmlns:sodipodi="http://sodipodi.sourceforge.net/DTD/sodipodi-0.dtd"
   xmlns:inkscape="http://www.inkscape.org/namespaces/inkscape"
   viewBox="0 0 35 35"
   width="35"
   height="35"
   version="1.1"
   id="svg4"
   sodipodi:docname="git_logo.svg"
   style="fill:#000000"
   inkscape:version="0.92.4 (5da689c313, 2019-01-14)">
  <metadata
     id="metadata10">
    <rdf:RDF>
      <cc:Work
         rdf:about="">
        <dc:format>image/svg+xml</dc:format>
        <dc:type
           rdf:resource="http://purl.org/dc/dcmitype/StillImage" />
        <dc:title></dc:title>
      </cc:Work>
    </rdf:RDF>
  </metadata>
  <defs
     id="defs8" />
  <sodipodi:namedview
     pagecolor="#ffffff"
     bordercolor="#666666"
     borderopacity="1"
     objecttolerance="10"
     gridtolerance="10"
     guidetolerance="10"
     inkscape:pageopacity="0"
     inkscape:pageshadow="2"
     inkscape:window-width="1920"
     inkscape:window-height="1017"
     id="namedview6"
     showgrid="false"
     inkscape:pagecheckerboard="true"
     fit-margin-top="0"
     fit-margin-left="0"
     fit-margin-right="0"
     fit-margin-bottom="0"
     inkscape:zoom="4.72"
     inkscape:cx="25"
     inkscape:cy="25"
     inkscape:window-x="-8"
     inkscape:window-y="-8"
     inkscape:window-maximized="1"
     inkscape:current-layer="svg4" />
  <path
     d="m 17.5,1.521739 c 0.430652,0 0.834674,0.167391 1.139022,0.471739 l 14.3675,14.3675 c 0.628478,0.628479 0.628478,1.650326 0,2.278805 l -14.3675,14.366739 c -0.304348,0.304348 -0.70837,0.471739 -1.139022,0.471739 -0.430652,0 -0.834674,-0.167391 -1.139022,-0.471739 L 1.9934783,18.639022 C 1.365,18.010543 1.365,16.988696 1.9934783,16.360217 l 9.3739127,-9.373913 1.730218,1.730218 c -0.415435,1.545326 0.0038,3.232174 1.174021,4.402391 0.28,0.28 0.598044,0.521196 0.945761,0.719022 v 7.327174 c -1.386304,0.798913 -2.282608,2.287934 -2.282608,3.942826 0,2.516956 2.04826,4.565217 4.565217,4.565217 2.516957,0 4.565217,-2.048261 4.565217,-4.565217 0,-1.654892 -0.896304,-3.143913 -2.282608,-3.942826 v -5.763587 l 0.923695,0.923695 c -0.415434,1.545326 0.0038,3.232174 1.174022,4.402392 0.862826,0.862826 2.008696,1.337608 3.22837,1.337608 1.219674,0 2.365543,-0.474782 3.228369,-1.336847 1.779674,-1.779674 1.779674,-4.676305 0,-6.455979 -0.858261,-0.858261 -1.998804,-1.330761 -3.213152,-1.330761 -0.4025,0 -0.802717,0.05326 -1.188478,0.15674 L 21.902391,11.065326 C 22.317826,9.52 21.898591,7.833152 20.72837,6.662935 19.870109,5.804674 18.729565,5.332174 17.515217,5.332174 c -0.4025,0 -0.802717,0.05326 -1.188478,0.156739 L 14.595761,3.758696 16.360978,1.993478 C 16.665326,1.68913 17.069348,1.521739 17.5,1.521739 M 17.5,0 c -0.801957,0 -1.603913,0.30587 -2.215652,0.917609 l -2.841087,2.841087 3.518261,3.518261 c 0.477826,-0.281522 1.015761,-0.423044 1.552935,-0.423044 0.773804,0 1.546086,0.293696 2.137282,0.884891 1.001304,1.001305 1.148152,2.523044 0.461848,3.690218 l 3.45663,3.45663 c 0.477826,-0.281522 1.015761,-0.423043 1.552935,-0.423043 0.773805,0 1.546087,0.293695 2.137283,0.884891 1.188478,1.188478 1.188478,3.115761 0,4.304239 -0.594239,0.594239 -1.372609,0.891739 -2.151739,0.891739 -0.779131,0 -1.5575,-0.2975 -2.151739,-0.891739 -1.001305,-1.001304 -1.148153,-2.523043 -0.461848,-3.690217 l -3.456631,-3.456631 c -0.246521,0.144566 -0.506739,0.251087 -0.776848,0.320326 V 22.1725 c 1.310218,0.339348 2.282609,1.519457 2.282609,2.936196 0,1.680761 -1.362717,3.043478 -3.043478,3.043478 -1.680761,0 -3.043478,-1.362717 -3.043478,-3.043478 0,-1.416739 0.972391,-2.596848 2.282608,-2.936196 V 12.825978 C 16.23087,12.694348 15.746957,12.441739 15.349022,12.043804 14.347717,11.0425 14.20087,9.520761 14.887174,8.353587 L 11.367391,4.834565 0.91760872,15.284348 c -1.2234783,1.223478 -1.2234783,3.207065 0,4.430543 L 15.284348,34.08163 C 15.896087,34.69413 16.698043,35 17.5,35 c 0.801957,0 1.603913,-0.30587 2.215652,-0.917609 L 34.082391,19.715652 c 1.223479,-1.223478 1.223479,-3.207065 0,-4.430543 L 19.715652,0.917609 C 19.103913,0.30587 18.301957,0 17.5,0 Z"
     id="path2"
     inkscape:connector-curvature="0"
     style="fill:#ffffff;stroke-width:0.76086956" />
</svg>
