<?xml version="1.0" encoding="UTF-8" standalone="no"?>
<!-- Generator: Adobe Illustrator 19.0.0, SVG Export Plug-In . SVG Version: 6.00 Build 0)  -->

<svg
   xmlns:dc="http://purl.org/dc/elements/1.1/"
   xmlns:cc="http://creativecommons.org/ns#"
   xmlns:rdf="http://www.w3.org/1999/02/22-rdf-syntax-ns#"
   xmlns:svg="http://www.w3.org/2000/svg"
   xmlns="http://www.w3.org/2000/svg"
   xmlns:sodipodi="http://sodipodi.sourceforge.net/DTD/sodipodi-0.dtd"
   xmlns:inkscape="http://www.inkscape.org/namespaces/inkscape"
   version="1.1"
   id="Capa_1"
   x="0px"
   y="0px"
   viewBox="0 0 50 50.000008"
   xml:space="preserve"
   sodipodi:docname="github_color.svg"
   width="50"
   height="50.000008"
   inkscape:version="0.92.4 (5da689c313, 2019-01-14)"><metadata
   id="metadata39"><rdf:RDF><cc:Work
       rdf:about=""><dc:format>image/svg+xml</dc:format><dc:type
         rdf:resource="http://purl.org/dc/dcmitype/StillImage" /><dc:title></dc:title></cc:Work></rdf:RDF></metadata><defs
   id="defs37" /><sodipodi:namedview
   pagecolor="#ffffff"
   bordercolor="#666666"
   borderopacity="1"
   objecttolerance="10"
   gridtolerance="10"
   guidetolerance="10"
   inkscape:pageopacity="0"
   inkscape:pageshadow="2"
   inkscape:window-width="1920"
   inkscape:window-height="1017"
   id="namedview35"
   showgrid="false"
   inkscape:pagecheckerboard="true"
   fit-margin-top="0"
   fit-margin-left="0"
   fit-margin-right="0"
   fit-margin-bottom="0"
   inkscape:zoom="1.3037281"
   inkscape:cx="32.390171"
   inkscape:cy="33.56098"
   inkscape:window-x="-8"
   inkscape:window-y="-8"
   inkscape:window-maximized="1"
   inkscape:current-layer="Capa_1" />
<path
   style="fill:#5c6bc0;stroke-width:0.09868886"
   d="M 24.996876,0 C 11.19375,0 0,11.47641 0,25.63362 c 0,11.32321 7.1625002,20.92943 17.1,24.32193 1.250001,0.23616 1.70625,-0.55531 1.70625,-1.23509 0,-0.60956 -0.02187,-2.22124 -0.03438,-4.3595 -6.953126,1.54785 -8.421876,-3.43718 -8.421876,-3.43718 -1.1343747,-2.96165 -2.7749997,-3.74993 -2.7749997,-3.74993 -2.2718751,-1.58934 0.16875,-1.55742 0.16875,-1.55742 2.5093757,0.18191 3.8281257,2.64251 3.8281257,2.64251 2.23125,3.91589 5.853125,2.78612 7.278124,2.12868 0.225001,-1.65635 0.871875,-2.78612 1.587501,-3.4276 -5.55,-0.64786 -11.3874997,-2.84676 -11.3874997,-12.66681 0,-2.79889 0.9749997,-5.08715 2.5749997,-6.88073 -0.259374,-0.64786 -1.115625,-3.25527 0.24375,-6.7818 0,0 2.100001,-0.68935 6.875001,2.62655 1.99375,-0.56808 4.13125,-0.85212 6.259374,-0.86169 2.121875,0.0128 4.262501,0.29361 6.259375,0.86488 4.771876,-3.3159 6.868751,-2.62655 6.868751,-2.62655 1.3625,3.52973 0.50625,6.13394 0.25,6.7818 1.603125,1.79359 2.56875,4.08185 2.56875,6.88073 0,9.84558 -5.84375,12.01257 -11.4125,12.64766 0.896875,0.79148 1.696874,2.35528 1.696874,4.74567 0,3.4276 -0.03124,6.19138 -0.03124,7.03073 0,0.68616 0.45,1.48402 1.71875,1.2319 C 42.84375,46.55667 50,36.95364 50,25.63362 50,11.47641 38.80625,0 24.996876,0 Z"
   id="path2"
   inkscape:connector-curvature="0" />
<g
   id="g4"
   transform="translate(0,-461.99999)">
</g>
<g
   id="g6"
   transform="translate(0,-461.99999)">
</g>
<g
   id="g8"
   transform="translate(0,-461.99999)">
</g>
<g
   id="g10"
   transform="translate(0,-461.99999)">
</g>
<g
   id="g12"
   transform="translate(0,-461.99999)">
</g>
<g
   id="g14"
   transform="translate(0,-461.99999)">
</g>
<g
   id="g16"
   transform="translate(0,-461.99999)">
</g>
<g
   id="g18"
   transform="translate(0,-461.99999)">
</g>
<g
   id="g20"
   transform="translate(0,-461.99999)">
</g>
<g
   id="g22"
   transform="translate(0,-461.99999)">
</g>
<g
   id="g24"
   transform="translate(0,-461.99999)">
</g>
<g
   id="g26"
   transform="translate(0,-461.99999)">
</g>
<g
   id="g28"
   transform="translate(0,-461.99999)">
</g>
<g
   id="g30"
   transform="translate(0,-461.99999)">
</g>
<g
   id="g32"
   transform="translate(0,-461.99999)">
</g>
</svg>