<?xml version="1.0" encoding="UTF-8" standalone="no"?>
<!-- Generator: Adobe Illustrator 19.0.0, SVG Export Plug-In . SVG Version: 6.00 Build 0)  -->

<svg
   xmlns:dc="http://purl.org/dc/elements/1.1/"
   xmlns:cc="http://creativecommons.org/ns#"
   xmlns:rdf="http://www.w3.org/1999/02/22-rdf-syntax-ns#"
   xmlns:svg="http://www.w3.org/2000/svg"
   xmlns="http://www.w3.org/2000/svg"
   xmlns:sodipodi="http://sodipodi.sourceforge.net/DTD/sodipodi-0.dtd"
   xmlns:inkscape="http://www.inkscape.org/namespaces/inkscape"
   version="1.1"
   id="Capa_1"
   x="0px"
   y="0px"
   viewBox="0 0 50 50"
   xml:space="preserve"
   sodipodi:docname="github.svg"
   width="50"
   height="50"
   inkscape:version="0.92.4 (5da689c313, 2019-01-14)"><metadata
   id="metadata43"><rdf:RDF><cc:Work
       rdf:about=""><dc:format>image/svg+xml</dc:format><dc:type
         rdf:resource="http://purl.org/dc/dcmitype/StillImage" /><dc:title></dc:title></cc:Work></rdf:RDF></metadata><defs
   id="defs41" /><sodipodi:namedview
   pagecolor="#ffffff"
   bordercolor="#666666"
   borderopacity="1"
   objecttolerance="10"
   gridtolerance="10"
   guidetolerance="10"
   inkscape:pageopacity="0"
   inkscape:pageshadow="2"
   inkscape:window-width="1920"
   inkscape:window-height="1017"
   id="namedview39"
   showgrid="false"
   inkscape:pagecheckerboard="true"
   fit-margin-top="0"
   fit-margin-left="0"
   fit-margin-right="0"
   fit-margin-bottom="0"
   inkscape:zoom="1.84375"
   inkscape:cx="23.186252"
   inkscape:cy="41.231291"
   inkscape:window-x="-8"
   inkscape:window-y="-8"
   inkscape:window-maximized="1"
   inkscape:current-layer="Capa_1" />
<g
   id="g6"
   transform="matrix(0.09765625,0,0,0.09973237,0,-0.5314738)"
   style="fill:#ffffff">
	<g
   id="g4"
   style="fill:#ffffff">
		<path
   d="M 255.968,5.329 C 114.624,5.329 0,120.401 0,262.353 c 0,113.536 73.344,209.856 175.104,243.872 12.8,2.368 17.472,-5.568 17.472,-12.384 0,-6.112 -0.224,-22.272 -0.352,-43.712 -71.2,15.52 -86.24,-34.464 -86.24,-34.464 -11.616,-29.696 -28.416,-37.6 -28.416,-37.6 -23.264,-15.936 1.728,-15.616 1.728,-15.616 25.696,1.824 39.2,26.496 39.2,26.496 22.848,39.264 59.936,27.936 74.528,21.344 2.304,-16.608 8.928,-27.936 16.256,-34.368 -56.832,-6.496 -116.608,-28.544 -116.608,-127.008 0,-28.064 9.984,-51.008 26.368,-68.992 -2.656,-6.496 -11.424,-32.64 2.496,-68 0,0 21.504,-6.912 70.4,26.336 20.416,-5.696 42.304,-8.544 64.096,-8.64 21.728,0.128 43.648,2.944 64.096,8.672 48.864,-33.248 70.336,-26.336 70.336,-26.336 13.952,35.392 5.184,61.504 2.56,68 16.416,17.984 26.304,40.928 26.304,68.992 0,98.72 -59.84,120.448 -116.864,126.816 9.184,7.936 17.376,23.616 17.376,47.584 0,34.368 -0.32,62.08 -0.32,70.496 0,6.88 4.608,14.88 17.6,12.352 C 438.72,472.145 512,375.857 512,262.353 512,120.401 397.376,5.329 255.968,5.329 Z"
   id="path2"
   inkscape:connector-curvature="0"
   style="fill:#ffffff" />
	</g>
</g>
<g
   id="g8"
   transform="translate(0,-461.99999)">
</g>
<g
   id="g10"
   transform="translate(0,-461.99999)">
</g>
<g
   id="g12"
   transform="translate(0,-461.99999)">
</g>
<g
   id="g14"
   transform="translate(0,-461.99999)">
</g>
<g
   id="g16"
   transform="translate(0,-461.99999)">
</g>
<g
   id="g18"
   transform="translate(0,-461.99999)">
</g>
<g
   id="g20"
   transform="translate(0,-461.99999)">
</g>
<g
   id="g22"
   transform="translate(0,-461.99999)">
</g>
<g
   id="g24"
   transform="translate(0,-461.99999)">
</g>
<g
   id="g26"
   transform="translate(0,-461.99999)">
</g>
<g
   id="g28"
   transform="translate(0,-461.99999)">
</g>
<g
   id="g30"
   transform="translate(0,-461.99999)">
</g>
<g
   id="g32"
   transform="translate(0,-461.99999)">
</g>
<g
   id="g34"
   transform="translate(0,-461.99999)">
</g>
<g
   id="g36"
   transform="translate(0,-461.99999)">
</g>
</svg>