<?xml version="1.0" encoding="UTF-8" standalone="no"?>
<!-- Generator: Adobe Illustrator 19.0.0, SVG Export Plug-In . SVG Version: 6.00 Build 0)  -->

<svg
   xmlns:dc="http://purl.org/dc/elements/1.1/"
   xmlns:cc="http://creativecommons.org/ns#"
   xmlns:rdf="http://www.w3.org/1999/02/22-rdf-syntax-ns#"
   xmlns:svg="http://www.w3.org/2000/svg"
   xmlns="http://www.w3.org/2000/svg"
   xmlns:sodipodi="http://sodipodi.sourceforge.net/DTD/sodipodi-0.dtd"
   xmlns:inkscape="http://www.inkscape.org/namespaces/inkscape"
   version="1.1"
   id="Capa_1"
   x="0px"
   y="0px"
   viewBox="0 0 35.000001 35.000001"
   xml:space="preserve"
   sodipodi:docname="guitar_logo.svg"
   width="35"
   height="35"
   inkscape:version="0.92.4 (5da689c313, 2019-01-14)"><metadata
   id="metadata67"><rdf:RDF><cc:Work
       rdf:about=""><dc:format>image/svg+xml</dc:format><dc:type
         rdf:resource="http://purl.org/dc/dcmitype/StillImage" /><dc:title></dc:title></cc:Work></rdf:RDF></metadata><defs
   id="defs65" /><sodipodi:namedview
   pagecolor="#ffffff"
   bordercolor="#666666"
   borderopacity="1"
   objecttolerance="10"
   gridtolerance="10"
   guidetolerance="10"
   inkscape:pageopacity="0"
   inkscape:pageshadow="2"
   inkscape:window-width="1920"
   inkscape:window-height="1017"
   id="namedview63"
   showgrid="false"
   inkscape:pagecheckerboard="true"
   fit-margin-top="0"
   fit-margin-left="0"
   fit-margin-right="0"
   fit-margin-bottom="0"
   inkscape:zoom="3.6875145"
   inkscape:cx="-3.0489345"
   inkscape:cy="28.203292"
   inkscape:window-x="-8"
   inkscape:window-y="-8"
   inkscape:window-maximized="1"
   inkscape:current-layer="Capa_1" />
<g
   id="g6"
   style="fill:#ffffff"
   transform="matrix(0.06837344,0,0,0.06835964,-0.00350395,9.4913105e-7)">
	<g
   id="g4"
   style="fill:#ffffff">
		<path
   d="m 143.67,292.982 c -3.429,-2.429 -8.174,-1.613 -10.598,1.815 -0.058,0.082 -6.226,7.628 -26.089,11.981 -1.98,-2.301 -5.232,-3.288 -8.27,-2.224 -2.31,0.808 -3.976,2.62 -4.697,4.774 -25.706,6.106 -33.658,19.167 -34.539,20.757 -2.035,3.673 -0.707,8.301 2.966,10.335 1.167,0.647 2.431,0.953 3.678,0.953 2.675,0 5.27,-1.414 6.657,-3.919 0.053,-0.095 5.749,-8.881 25.039,-13.401 1.428,1.987 3.729,3.173 6.161,3.173 0.831,0 1.679,-0.138 2.509,-0.428 2.538,-0.887 4.301,-2.987 4.883,-5.422 24.915,-5.737 33.185,-16.481 34.114,-17.796 2.427,-3.427 1.614,-8.173 -1.814,-10.598 z"
   id="path2"
   style="fill:#ffffff"
   inkscape:connector-curvature="0" />
	</g>
</g>
<g
   id="g12"
   style="fill:#ffffff"
   transform="matrix(0.06837344,0,0,0.06835964,-0.00350395,9.4913105e-7)">
	<g
   id="g10"
   style="fill:#ffffff">
		<path
   d="m 217.731,368.445 c -2.425,-3.428 -7.17,-4.241 -10.598,-1.815 -1.315,0.93 -12.059,9.199 -17.796,34.114 -2.435,0.582 -4.535,2.345 -5.422,4.883 -0.29,0.83 -0.428,1.678 -0.428,2.509 0,2.433 1.186,4.733 3.173,6.161 -4.52,19.29 -13.306,24.986 -13.401,25.039 -2.505,1.388 -3.919,3.982 -3.919,6.657 0,1.247 0.306,2.511 0.953,3.678 2.035,3.673 6.662,5.001 10.335,2.966 1.59,-0.881 14.651,-8.833 20.757,-34.539 2.154,-0.721 3.966,-2.386 4.774,-4.697 1.063,-3.038 0.077,-6.29 -2.224,-8.27 4.353,-19.864 11.899,-26.032 11.981,-26.089 3.428,-2.423 4.244,-7.168 1.815,-10.597 z"
   id="path8"
   style="fill:#ffffff"
   inkscape:connector-curvature="0" />
	</g>
</g>
<g
   id="g18"
   style="fill:#ffffff"
   transform="matrix(0.06837344,0,0,0.06835964,-0.00350395,9.4913105e-7)">
	<g
   id="g16"
   style="fill:#ffffff">
		<path
   d="M 130.428,420.88 91.175,381.627 c -2.97,-2.968 -7.784,-2.968 -10.753,0 -2.969,2.97 -2.969,7.784 0,10.753 l 39.252,39.253 c 1.485,1.484 3.432,2.226 5.377,2.226 1.945,0 3.892,-0.742 5.377,-2.226 2.97,-2.97 2.97,-7.783 0,-10.753 z"
   id="path14"
   style="fill:#ffffff"
   inkscape:connector-curvature="0" />
	</g>
</g>
<g
   id="g24"
   style="fill:#ffffff"
   transform="matrix(0.06837344,0,0,0.06835964,-0.00350395,9.4913105e-7)">
	<g
   id="g22"
   style="fill:#ffffff">
		<path
   d="M 176.475,374.833 137.22,335.58 c -1.426,-1.425 -3.36,-2.226 -5.377,-2.226 -2.017,0 -3.95,0.801 -5.377,2.227 l -19.626,19.627 c -2.969,2.969 -2.969,7.783 0,10.752 l 39.253,39.253 c 1.485,1.484 3.432,2.227 5.377,2.227 1.945,0 3.892,-0.742 5.377,-2.226 l 19.627,-19.627 c 1.425,-1.426 2.226,-3.36 2.226,-5.377 0,-2.017 -0.8,-3.95 -2.225,-5.377 z m -25.004,14.25 -28.5,-28.5 8.874,-8.875 28.501,28.5 z"
   id="path20"
   style="fill:#ffffff"
   inkscape:connector-curvature="0" />
	</g>
</g>
<g
   id="g30"
   style="fill:#ffffff"
   transform="matrix(0.06837344,0,0,0.06835964,-0.00350395,9.4913105e-7)">
	<g
   id="g28"
   style="fill:#ffffff">
		<path
   d="m 509.598,67.945 -9.022,-9.022 c 0.107,-0.302 0.214,-0.606 0.297,-0.919 0.997,-3.777 0.139,-8.001 -2.357,-11.589 -3.88,-5.582 -7.66,-11.089 -10.145,-14.722 -1.885,-2.757 -5.254,-6.126 -8.01,-8.01 -2.955,-2.02 -8.799,-6.026 -14.725,-10.148 -3.589,-2.497 -7.812,-3.355 -11.589,-2.357 -0.314,0.083 -0.617,0.19 -0.919,0.297 l -9.249,-9.249 c -3.025,-3.023 -7.963,-2.967 -10.917,0.168 -2.855,3.03 -2.557,7.865 0.386,10.808 l 9.93,9.93 c -1.744,2.62 -3.75,5.173 -5.883,7.614 l -11.02,-11.02 c -2.97,-2.968 -7.784,-2.968 -10.753,0 -2.969,2.97 -2.969,7.784 0,10.753 l 10.994,10.994 c -2.666,2.355 -5.203,4.424 -7.378,6.121 l -10.14,-10.141 c -2.944,-2.944 -7.78,-3.243 -10.811,-0.388 -3.137,2.953 -3.191,7.891 -0.168,10.914 l 10.687,10.687 c -0.183,0.559 -0.347,1.128 -0.465,1.715 l -1.397,6.94 c -0.161,0.801 -0.476,1.428 -0.941,1.871 l -57.276,54.619 c -3.039,2.898 -3.153,7.711 -0.255,10.749 2.898,3.039 7.711,3.153 10.75,0.255 l 31.785,-30.31 16.525,16.526 -163.353,171.361 -24.504,-24.503 114.527,-109.212 c 3.039,-2.898 3.153,-7.711 0.255,-10.749 -2.898,-3.039 -7.711,-3.153 -10.75,-0.255 l -58.559,55.842 c -2.115,-2.882 -3.845,-5.009 -5.149,-6.315 -25.209,-25.22 -64.318,-27.158 -87.183,-4.318 -6.342,6.343 -10.937,16.263 -13.284,28.683 -4.388,23.132 -24.477,39.721 -47.868,39.44 -32.312,-0.393 -62.497,11.044 -82.798,31.343 -43.912,43.912 -36.836,122.438 15.774,175.049 29.419,29.418 66.93,44.603 101.969,44.601 27.633,-10e-4 53.73,-9.447 73.092,-28.808 0.939,-0.94 1.863,-1.904 2.77,-2.889 3.02,-3.284 2.601,-8.447 -0.925,-11.181 -3.114,-2.414 -7.566,-2.054 -10.232,0.847 -0.775,0.843 -1.564,1.668 -2.367,2.47 C 170.969,510.419 102.084,503.336 55.395,456.643 8.713,409.962 1.637,341.083 39.62,303.101 c 17.136,-17.137 42.756,-26.899 70.475,-26.899 0.46,0 0.927,0.003 1.389,0.008 0.256,0.004 0.513,0.005 0.769,0.005 30.405,0 56.502,-21.679 62.219,-51.82 1.779,-9.408 4.924,-16.586 9.094,-20.757 16.932,-16.914 46.395,-14.977 65.677,4.312 0.782,0.782 2.383,2.767 4.798,6.156 l -50.495,48.152 c -1.482,1.413 -2.332,3.364 -2.355,5.412 -0.024,2.048 0.779,4.019 2.225,5.467 l 35.515,35.515 c 1.427,1.426 3.361,2.226 5.377,2.226 0.029,0 0.061,0 0.091,-10e-4 2.048,-0.023 3.998,-0.873 5.413,-2.356 l 1.434,-1.504 c 8.217,5.798 18.01,8.935 28.255,8.935 11.351,0 22.425,-3.962 31.18,-11.158 0.163,-0.135 0.216,-0.126 0.276,-0.115 0.16,0.025 0.3,0.139 0.317,0.126 0,0 0.003,0.044 -0.016,0.139 -0.119,0.591 -0.279,1.185 -0.485,1.782 -1.928,5.677 -5.037,10.686 -9.239,14.887 -3.664,3.665 -9.775,6.589 -17.662,8.452 -29.691,6.977 -49.976,34.362 -48.233,65.112 0.938,16.608 -1.539,32.727 -7.187,47.052 -1.466,3.717 0.153,7.933 3.754,9.666 l 0.003,0.001 c 3.997,1.925 8.767,0.027 10.393,-4.101 6.448,-16.364 9.28,-34.681 8.219,-53.478 -1.325,-23.368 14.039,-44.164 36.538,-49.452 10.797,-2.551 19.184,-6.756 24.928,-12.499 5.864,-5.865 10.199,-12.844 12.878,-20.731 0.251,-0.733 0.473,-1.477 0.665,-2.227 1.622,-6.349 -1.308,-14.426 -6.953,-17.754 -5.721,-3.373 -12.715,-2.83 -17.851,1.392 -6.042,4.964 -13.686,7.7 -21.524,7.7 -6.295,0 -12.342,-1.717 -17.593,-4.914 L 442.846,106.03 c 0.438,-0.459 1.066,-0.774 1.869,-0.936 l 6.936,-1.388 c 0.591,-0.119 1.164,-0.282 1.726,-0.466 l 10.691,10.69 c 1.484,1.484 3.431,2.226 5.376,2.226 1.887,0 3.773,-0.699 5.24,-2.094 3.105,-2.955 2.938,-8.084 -0.093,-11.115 L 464.452,92.809 c 1.697,-2.176 3.767,-4.712 6.122,-7.378 l 10.993,10.997 c 1.485,1.484 3.432,2.226 5.377,2.226 1.945,0 3.892,-0.742 5.377,-2.226 2.969,-2.97 2.969,-7.784 0,-10.753 l -11.02,-11.02 c 2.441,-2.133 4.995,-4.139 7.614,-5.884 l 10.155,10.155 c 1.485,1.484 3.432,2.226 5.377,2.226 1.888,0 3.775,-0.698 5.242,-2.095 3.107,-2.955 2.939,-8.082 -0.091,-11.112 z m -91.569,42.08 -16.013,-16.013 11.087,-10.573 15.497,15.498 z m 30.399,-21.181 -6.7,1.342 c -0.101,0.02 -0.2,0.05 -0.301,0.072 L 421.783,70.614 c 0.021,-0.097 0.05,-0.191 0.069,-0.289 l 1.349,-6.702 c 8.043,-5.752 26.076,-19.835 35.421,-36.445 5.071,3.517 9.881,6.818 13.158,9.058 1.187,0.811 3.225,2.849 4.037,4.037 2.254,3.296 5.563,8.119 9.054,13.153 -16.603,9.341 -30.689,27.375 -36.443,35.418 z"
   id="path26"
   style="fill:#ffffff"
   inkscape:connector-curvature="0" />
	</g>
</g>
<g
   id="g32"
   transform="translate(0,-476.998)">
</g>
<g
   id="g34"
   transform="translate(0,-476.998)">
</g>
<g
   id="g36"
   transform="translate(0,-476.998)">
</g>
<g
   id="g38"
   transform="translate(0,-476.998)">
</g>
<g
   id="g40"
   transform="translate(0,-476.998)">
</g>
<g
   id="g42"
   transform="translate(0,-476.998)">
</g>
<g
   id="g44"
   transform="translate(0,-476.998)">
</g>
<g
   id="g46"
   transform="translate(0,-476.998)">
</g>
<g
   id="g48"
   transform="translate(0,-476.998)">
</g>
<g
   id="g50"
   transform="translate(0,-476.998)">
</g>
<g
   id="g52"
   transform="translate(0,-476.998)">
</g>
<g
   id="g54"
   transform="translate(0,-476.998)">
</g>
<g
   id="g56"
   transform="translate(0,-476.998)">
</g>
<g
   id="g58"
   transform="translate(0,-476.998)">
</g>
<g
   id="g60"
   transform="translate(0,-476.998)">
</g>
</svg>