<?xml version="1.0" encoding="UTF-8" standalone="no"?>
<svg
   xmlns:dc="http://purl.org/dc/elements/1.1/"
   xmlns:cc="http://creativecommons.org/ns#"
   xmlns:rdf="http://www.w3.org/1999/02/22-rdf-syntax-ns#"
   xmlns:svg="http://www.w3.org/2000/svg"
   xmlns="http://www.w3.org/2000/svg"
   xmlns:sodipodi="http://sodipodi.sourceforge.net/DTD/sodipodi-0.dtd"
   xmlns:inkscape="http://www.inkscape.org/namespaces/inkscape"
   id="Outline"
   viewBox="0 0 38.742985 24.999996"
   width="38.742985"
   height="24.999996"
   version="1.1"
   sodipodi:docname="gym_logo.svg"
   inkscape:version="0.92.4 (5da689c313, 2019-01-14)">
  <metadata
     id="metadata9">
    <rdf:RDF>
      <cc:Work
         rdf:about="">
        <dc:format>image/svg+xml</dc:format>
        <dc:type
           rdf:resource="http://purl.org/dc/dcmitype/StillImage" />
        <dc:title></dc:title>
      </cc:Work>
    </rdf:RDF>
  </metadata>
  <defs
     id="defs7" />
  <sodipodi:namedview
     pagecolor="#ffffff"
     bordercolor="#666666"
     borderopacity="1"
     objecttolerance="10"
     gridtolerance="10"
     guidetolerance="10"
     inkscape:pageopacity="0"
     inkscape:pageshadow="2"
     inkscape:window-width="1920"
     inkscape:window-height="1017"
     id="namedview5"
     showgrid="false"
     inkscape:pagecheckerboard="true"
     fit-margin-top="0"
     fit-margin-left="0"
     fit-margin-right="0"
     fit-margin-bottom="0"
     inkscape:zoom="1.84375"
     inkscape:cx="-89.424833"
     inkscape:cy="73.225215"
     inkscape:window-x="-8"
     inkscape:window-y="-8"
     inkscape:window-maximized="1"
     inkscape:current-layer="Outline" />
  <path
     d="M 36.245977,10.000079 V 4.3752481 a 2.498205,2.498206 0 0 0 -3.76551,-2.154394 2.4999237,2.4999247 0 0 0 -4.984222,0.27945 V 10.000079 H 11.246741 V 2.5003041 a 2.4999237,2.4999247 0 0 0 -4.983832,-0.27945 2.498205,2.498206 0 0 0 -3.7659007,2.154394 v 5.6248309 a 2.4999237,2.4999247 0 0 0 0,4.999846 v 5.624831 a 2.498205,2.498206 0 0 0 3.7659007,2.154386 2.4999237,2.4999247 0 0 0 4.983832,-0.279443 v -7.499774 h 16.249504 v 7.499774 a 2.4999237,2.4999247 0 0 0 4.984222,0.279443 2.498205,2.498206 0 0 0 3.76551,-2.154386 v -5.624831 a 2.4999237,2.4999247 0 0 0 0,-4.999846 z M 2.4970083,13.749966 a 1.2499643,1.2499648 0 0 1 0,-2.499928 z M 4.9969319,21.87472 A 1.2514462,1.2514467 0 0 1 3.7469704,20.624756 V 4.3752481 a 1.2499618,1.2499623 0 0 1 2.4999236,0 V 20.624756 A 1.2514462,1.2514467 0 0 1 4.9969319,21.87472 Z m 4.9998473,0.624979 a 1.2499618,1.2499623 0 0 1 -2.4999236,0 V 2.5003041 a 1.2499618,1.2499623 0 0 1 2.4999236,0 z m 1.2499618,-8.749733 v -2.499928 h 16.249504 v 2.499928 z m 19.999389,8.749733 a 1.2499618,1.2499623 0 0 1 -2.499923,0 V 2.5003041 a 1.2499618,1.2499623 0 0 1 2.499923,0 z m 3.749886,-1.874943 a 1.249962,1.2499625 0 0 1 -2.499924,0 V 4.3752481 a 1.249962,1.2499625 0 0 1 2.499924,0 z m 1.249961,-6.87479 v -2.499928 a 1.2499643,1.2499648 0 0 1 0,2.499928 z"
     id="path2"
     inkscape:connector-curvature="0"
     style="fill:#ffffff;stroke-width:0.07812262" />
</svg>
