<?xml version="1.0" encoding="UTF-8" standalone="no"?>
<!-- Generator: Adobe Illustrator 16.0.0, SVG Export Plug-In . SVG Version: 6.00 Build 0)  -->

<svg
   xmlns:dc="http://purl.org/dc/elements/1.1/"
   xmlns:cc="http://creativecommons.org/ns#"
   xmlns:rdf="http://www.w3.org/1999/02/22-rdf-syntax-ns#"
   xmlns:svg="http://www.w3.org/2000/svg"
   xmlns="http://www.w3.org/2000/svg"
   xmlns:sodipodi="http://sodipodi.sourceforge.net/DTD/sodipodi-0.dtd"
   xmlns:inkscape="http://www.inkscape.org/namespaces/inkscape"
   version="1.1"
   id="Capa_1"
   x="0px"
   y="0px"
   width="30.787909"
   height="35"
   viewBox="0 0 30.787909 35"
   xml:space="preserve"
   sodipodi:docname="html5_logo.svg"
   inkscape:version="0.92.4 (5da689c313, 2019-01-14)"><metadata
   id="metadata43"><rdf:RDF><cc:Work
       rdf:about=""><dc:format>image/svg+xml</dc:format><dc:type
         rdf:resource="http://purl.org/dc/dcmitype/StillImage" /><dc:title></dc:title></cc:Work></rdf:RDF></metadata><defs
   id="defs41" /><sodipodi:namedview
   pagecolor="#ffffff"
   bordercolor="#666666"
   borderopacity="1"
   objecttolerance="10"
   gridtolerance="10"
   guidetolerance="10"
   inkscape:pageopacity="0"
   inkscape:pageshadow="2"
   inkscape:window-width="1920"
   inkscape:window-height="1017"
   id="namedview39"
   showgrid="false"
   inkscape:pagecheckerboard="true"
   fit-margin-top="0"
   fit-margin-left="0"
   fit-margin-right="0"
   fit-margin-bottom="0"
   inkscape:zoom="0.88814794"
   inkscape:cx="-44.017774"
   inkscape:cy="124.20785"
   inkscape:window-x="-8"
   inkscape:window-y="-8"
   inkscape:window-maximized="1"
   inkscape:current-layer="Capa_1" />
<g
   id="g6"
   transform="matrix(1.3999989,0,0,1.3999989,0,-709.02019)">
	<g
   id="g4">
		<path
   d="m 2.2561866,529.03169 8.4310024,2.37913 c 0.153168,0.0432 0.401313,0.0435 0.554198,6.1e-4 l 8.49352,-2.38035 c 0.153168,-0.0429 0.28846,-0.20614 0.302854,-0.36448 l 1.952466,-21.93644 c 0.01416,-0.15839 -0.103633,-0.28677 -0.262493,-0.28677 H 0.26340663 c -0.158907,0 -0.27637,0.12838 -0.262257,0.28677 L 1.9536616,528.6666 c 0.01407,0.15834 0.149405,0.3219 0.302525,0.36509 z m 2.108268,-17.9863 H 17.626357 c 0.158907,0 0.276088,0.12838 0.261693,0.28677 l -0.198093,2.16584 c -0.01439,0.15834 -0.15519,0.28672 -0.314097,0.28672 H 7.4014666 c -0.158906,0 -0.277263,0.12838 -0.263998,0.28705 l 0.187132,2.25969 c 0.01327,0.15835 0.152604,0.28705 0.311793,0.28705 h 9.5051984 c 0.158907,0 0.276088,0.12838 0.261646,0.28677 l -0.730134,7.94186 c -0.01468,0.15834 -0.150533,0.32101 -0.304031,0.36335 l -5.064603,1.39686 c -0.153215,0.0423 -0.277593,0.08 -0.277593,0.0841 0,0.004 -0.01411,0.008 -0.03138,0.008 -0.01726,0 -0.155473,-0.0342 -0.308876,-0.0766 L 5.5750226,525.2107 c -0.153167,-0.0423 -0.287613,-0.20524 -0.300267,-0.36358 l -0.298856,-3.77801 c -0.01237,-0.15863 0.10622,-0.28705 0.265174,-0.28705 h 2.163542 c 0.158907,0 0.299985,0.12837 0.314662,0.28676 l 0.150298,1.61824 c 0.01468,0.15834 0.151145,0.32045 0.304595,0.36184 l 2.5121684,0.67943 c 0.15345,0.0414 0.402489,0.0418 0.555939,2.8e-4 l 2.527692,-0.67999 c 0.15345,-0.0412 0.290482,-0.20294 0.305771,-0.36133 l 0.289071,-2.99557 c 0.01524,-0.15834 -0.101328,-0.28643 -0.260282,-0.28643 H 5.1003256 c -0.158907,0 -0.299139,-0.12838 -0.313251,-0.28677 l -0.685162,-7.78582 c -0.01383,-0.15863 0.103632,-0.28705 0.262539,-0.28705 z"
   id="path2"
   style="fill:#ffffff;stroke-width:0.0470417"
   inkscape:connector-curvature="0" />
	</g>
</g>
<g
   id="g8"
   transform="translate(0,-496.44341)">
</g>
<g
   id="g10"
   transform="translate(0,-496.44341)">
</g>
<g
   id="g12"
   transform="translate(0,-496.44341)">
</g>
<g
   id="g14"
   transform="translate(0,-496.44341)">
</g>
<g
   id="g16"
   transform="translate(0,-496.44341)">
</g>
<g
   id="g18"
   transform="translate(0,-496.44341)">
</g>
<g
   id="g20"
   transform="translate(0,-496.44341)">
</g>
<g
   id="g22"
   transform="translate(0,-496.44341)">
</g>
<g
   id="g24"
   transform="translate(0,-496.44341)">
</g>
<g
   id="g26"
   transform="translate(0,-496.44341)">
</g>
<g
   id="g28"
   transform="translate(0,-496.44341)">
</g>
<g
   id="g30"
   transform="translate(0,-496.44341)">
</g>
<g
   id="g32"
   transform="translate(0,-496.44341)">
</g>
<g
   id="g34"
   transform="translate(0,-496.44341)">
</g>
<g
   id="g36"
   transform="translate(0,-496.44341)">
</g>
</svg>