<?xml version="1.0" encoding="UTF-8" standalone="no"?>
<!-- Generator: Adobe Illustrator 19.0.0, SVG Export Plug-In . SVG Version: 6.00 Build 0)  -->

<svg
   xmlns:dc="http://purl.org/dc/elements/1.1/"
   xmlns:cc="http://creativecommons.org/ns#"
   xmlns:rdf="http://www.w3.org/1999/02/22-rdf-syntax-ns#"
   xmlns:svg="http://www.w3.org/2000/svg"
   xmlns="http://www.w3.org/2000/svg"
   xmlns:sodipodi="http://sodipodi.sourceforge.net/DTD/sodipodi-0.dtd"
   xmlns:inkscape="http://www.inkscape.org/namespaces/inkscape"
   version="1.1"
   id="Layer_1"
   x="0px"
   y="0px"
   viewBox="0 0 50 50"
   xml:space="preserve"
   sodipodi:docname="linkedin_color.svg"
   width="50"
   height="50"
   inkscape:version="0.92.4 (5da689c313, 2019-01-14)"><metadata
   id="metadata39"><rdf:RDF><cc:Work
       rdf:about=""><dc:format>image/svg+xml</dc:format><dc:type
         rdf:resource="http://purl.org/dc/dcmitype/StillImage" /><dc:title></dc:title></cc:Work></rdf:RDF></metadata><defs
   id="defs37" /><sodipodi:namedview
   pagecolor="#ffffff"
   bordercolor="#666666"
   borderopacity="1"
   objecttolerance="10"
   gridtolerance="10"
   guidetolerance="10"
   inkscape:pageopacity="0"
   inkscape:pageshadow="2"
   inkscape:window-width="1920"
   inkscape:window-height="1017"
   id="namedview35"
   showgrid="false"
   inkscape:pagecheckerboard="true"
   fit-margin-top="0"
   fit-margin-left="0"
   fit-margin-right="0"
   fit-margin-bottom="0"
   inkscape:zoom="2.4712042"
   inkscape:cx="103.9292"
   inkscape:cy="45.798518"
   inkscape:window-x="-8"
   inkscape:window-y="-8"
   inkscape:window-maximized="1"
   inkscape:current-layer="Layer_1" />
<path
   style="fill:#0077b7;stroke-width:0.13089006"
   d="M 45.477094,0 H 4.5229058 C 2.025,0 0,2.025 0,4.52291 V 45.47696 C 0,47.975 2.025,50 4.5229058,50 H 45.476963 C 47.975,50 50,47.975 50,45.47696 V 4.52291 C 50,2.025 47.975,0 45.477094,0 Z M 15.47212,43.1733 c 0,0.72696 -0.589267,1.31623 -1.31623,1.31623 H 8.5530105 c -0.7269634,0 -1.3162304,-0.58927 -1.3162304,-1.31623 V 19.68626 c 0,-0.72697 0.589267,-1.31623 1.3162304,-1.31623 H 14.15589 c 0.726963,0 1.31623,0.58926 1.31623,1.31623 z M 11.35445,16.15602 c -2.9396594,0 -5.3227746,-2.38311 -5.3227746,-5.32277 0,-2.93966 2.3831152,-5.32278 5.3227746,-5.32278 2.93966,0 5.322775,2.38312 5.322775,5.32278 0,2.93966 -2.382984,5.32277 -5.322775,5.32277 z m 33.398168,27.1233 c 0,0.66832 -0.541885,1.21021 -1.21021,1.21021 h -6.012303 c -0.668325,0 -1.21021,-0.54189 -1.21021,-1.21021 V 32.26257 c 0,-1.64346 0.482068,-7.20171 -4.294895,-7.20171 -3.705366,0 -4.456937,3.80445 -4.607853,5.51178 v 12.70668 c 0,0.66832 -0.541754,1.21021 -1.21021,1.21021 h -5.814921 c -0.668325,0 -1.21021,-0.54189 -1.21021,-1.21021 V 19.58024 c 0,-0.66833 0.541885,-1.21021 1.21021,-1.21021 h 5.814921 c 0.668325,0 1.21021,0.54188 1.21021,1.21021 v 2.04908 c 1.373952,-2.06191 3.415837,-3.6534 7.76335,-3.6534 9.627226,0 9.572121,8.99424 9.572121,13.93612 z"
   id="path2"
   inkscape:connector-curvature="0" />
<g
   id="g4"
   transform="translate(0,-332)">
</g>
<g
   id="g6"
   transform="translate(0,-332)">
</g>
<g
   id="g8"
   transform="translate(0,-332)">
</g>
<g
   id="g10"
   transform="translate(0,-332)">
</g>
<g
   id="g12"
   transform="translate(0,-332)">
</g>
<g
   id="g14"
   transform="translate(0,-332)">
</g>
<g
   id="g16"
   transform="translate(0,-332)">
</g>
<g
   id="g18"
   transform="translate(0,-332)">
</g>
<g
   id="g20"
   transform="translate(0,-332)">
</g>
<g
   id="g22"
   transform="translate(0,-332)">
</g>
<g
   id="g24"
   transform="translate(0,-332)">
</g>
<g
   id="g26"
   transform="translate(0,-332)">
</g>
<g
   id="g28"
   transform="translate(0,-332)">
</g>
<g
   id="g30"
   transform="translate(0,-332)">
</g>
<g
   id="g32"
   transform="translate(0,-332)">
</g>
</svg>