<?xml version="1.0" encoding="UTF-8" standalone="no"?>
<!-- Created with Inkscape (http://www.inkscape.org/) -->

<svg
   xmlns:dc="http://purl.org/dc/elements/1.1/"
   xmlns:cc="http://creativecommons.org/ns#"
   xmlns:rdf="http://www.w3.org/1999/02/22-rdf-syntax-ns#"
   xmlns:svg="http://www.w3.org/2000/svg"
   xmlns="http://www.w3.org/2000/svg"
   xmlns:sodipodi="http://sodipodi.sourceforge.net/DTD/sodipodi-0.dtd"
   xmlns:inkscape="http://www.inkscape.org/namespaces/inkscape"
   width="31.832573"
   height="35.000015"
   viewBox="0 0 7.5801315 8.3343787"
   version="1.1"
   id="svg8"
   inkscape:version="0.92.4 (5da689c313, 2019-01-14)"
   sodipodi:docname="nodejs_logo.svg">
  <defs
     id="defs2" />
  <sodipodi:namedview
     id="base"
     pagecolor="#ffffff"
     bordercolor="#666666"
     borderopacity="1.0"
     inkscape:pageopacity="0.0"
     inkscape:pageshadow="2"
     inkscape:zoom="2"
     inkscape:cx="-164.20271"
     inkscape:cy="-32.750073"
     inkscape:document-units="px"
     inkscape:current-layer="layer1"
     showgrid="false"
     fit-margin-top="0"
     fit-margin-left="0"
     fit-margin-right="0"
     fit-margin-bottom="0"
     scale-x="0.9"
     inkscape:pagecheckerboard="true"
     units="px"
     inkscape:window-width="1920"
     inkscape:window-height="1017"
     inkscape:window-x="-8"
     inkscape:window-y="-8"
     inkscape:window-maximized="1" />
  <metadata
     id="metadata5">
    <rdf:RDF>
      <cc:Work
         rdf:about="">
        <dc:format>image/svg+xml</dc:format>
        <dc:type
           rdf:resource="http://purl.org/dc/dcmitype/StillImage" />
        <dc:title></dc:title>
      </cc:Work>
    </rdf:RDF>
  </metadata>
  <g
     inkscape:label="Layer 1"
     inkscape:groupmode="layer"
     id="layer1"
     transform="translate(1.0121588e-7,-258.9656)">
    <path
       style="fill:#ffffff;stroke:none;stroke-width:0.05316795px;stroke-linecap:butt;stroke-linejoin:miter;stroke-opacity:1"
       d="m 3.6665039,263.6544 -0.5790075,9e-4 c 0,0 -0.1168571,1.08257 1.3358445,1.19628 1.396212,0.10934 1.6997619,-0.4564 1.7080204,-0.4619 0,0 0.2957464,-0.39211 0.1595036,-0.81414 -0.098419,-0.41661 -0.467189,-0.52816 -0.4685428,-0.52835 -0.8603004,-0.30328 -1.8155074,-0.17307 -1.9792194,-0.49337 0,0 -0.1080931,-0.35715 0.2866646,-0.47935 0.3947522,-0.12221 0.9680828,-0.0259 0.9680828,-0.0259 0,0 0.4182482,0.0447 0.5333847,0.58038 l 0.5733306,0.0164 c -0.00406,4.5e-4 0.0077,-0.84996 -0.7284116,-1.06207 -0.9379774,-0.27025 -1.668398,0.0251 -1.6119042,0.007 0,0 -0.7307608,0.24437 -0.6508704,0.9211 0,0 -0.01176,0.56628 0.5991772,0.7378 0.4568221,0.17878 1.3199462,0.11214 1.7224977,0.33935 0.086729,0.0442 0.1278051,0.11242 0.1477983,0.18944 0.023884,0.096 0.02086,0.23453 -0.1218691,0.35973 -0.1181451,0.10598 -0.2450107,0.13062 -0.3884914,0.15085 -0.7962859,0.11116 -1.4422269,-0.0305 -1.505981,-0.63438 z"
       id="path850"
       inkscape:connector-curvature="0"
       sodipodi:nodetypes="ccsccccscccsccccccccc" />
    <path
       style="fill:#ffffff;stroke:none;stroke-width:0.05316795px;stroke-linecap:butt;stroke-linejoin:miter;stroke-opacity:1"
       d="m 2.9014084,266.25064 -0.5948162,0.26585 1.1663716,0.69782 c 0.017332,0.0126 0.3543569,0.22639 0.7676127,-0.0731 l 2.8777157,-1.62827 c 0.1385149,-0.0808 0.4883946,-0.31504 0.4602338,-0.73438 0.00336,-0.28245 -0.00406,-3.33371 -0.00406,-3.33371 0,0 0.046998,-0.45115 -0.3689056,-0.67906 -0.415899,-0.22794 -2.987661,-1.68124 -2.987661,-1.68124 0,0 -0.3872973,-0.25747 -0.8147,-0.0148 -0.4369744,0.24258 -3.00232871,1.69224 -3.00232871,1.69224 0,0 -0.40706647,0.20851 -0.40042072152,0.57405 0.006579952,0.36553 8.9319152e-4,3.49954 8.9319152e-4,3.49954 0,0 -0.04229367,0.4253 0.34775733,0.62973 0.3900524,0.20443 1.02447571,0.54983 1.02447571,0.54983 0.03724,0.0326 1.43739,0.46964 1.4248419,-0.87095 -0.01246,-1.33246 0.00168,-3.57554 0.00168,-3.57554 l -0.579863,0.008 -7.364e-4,3.56409 c 0.01358,0.0613 -0.1377309,0.60434 -0.7119631,0.33131 -0.4675936,-0.26786 -0.93988559,-0.53573 -0.93988559,-0.53573 l -0.00238,-3.62326 3.22850679,-1.83747 3.208228,1.83688 0.020272,3.61445 -3.2191072,1.82808 z"
       id="path848"
       inkscape:connector-curvature="0"
       sodipodi:nodetypes="cccccccscccccccsccccccccccc" />
  </g>
</svg>
