<?xml version="1.0" encoding="UTF-8" standalone="no"?>
<!-- Generator: Adobe Illustrator 19.0.0, SVG Export Plug-In . SVG Version: 6.00 Build 0)  -->

<svg
   xmlns:dc="http://purl.org/dc/elements/1.1/"
   xmlns:cc="http://creativecommons.org/ns#"
   xmlns:rdf="http://www.w3.org/1999/02/22-rdf-syntax-ns#"
   xmlns:svg="http://www.w3.org/2000/svg"
   xmlns="http://www.w3.org/2000/svg"
   xmlns:sodipodi="http://sodipodi.sourceforge.net/DTD/sodipodi-0.dtd"
   xmlns:inkscape="http://www.inkscape.org/namespaces/inkscape"
   version="1.1"
   id="Capa_1"
   x="0px"
   y="0px"
   viewBox="0 0 35 35"
   xml:space="preserve"
   sodipodi:docname="travel_logo.svg"
   width="35"
   height="35"
   inkscape:version="0.92.4 (5da689c313, 2019-01-14)"><metadata
   id="metadata121"><rdf:RDF><cc:Work
       rdf:about=""><dc:format>image/svg+xml</dc:format><dc:type
         rdf:resource="http://purl.org/dc/dcmitype/StillImage" /><dc:title></dc:title></cc:Work></rdf:RDF></metadata><defs
   id="defs119" /><sodipodi:namedview
   pagecolor="#ffffff"
   bordercolor="#666666"
   borderopacity="1"
   objecttolerance="10"
   gridtolerance="10"
   guidetolerance="10"
   inkscape:pageopacity="0"
   inkscape:pageshadow="2"
   inkscape:window-width="1920"
   inkscape:window-height="1017"
   id="namedview117"
   showgrid="false"
   inkscape:pagecheckerboard="true"
   fit-margin-top="0"
   fit-margin-left="0"
   fit-margin-right="0"
   fit-margin-bottom="0"
   inkscape:zoom="5.5625733"
   inkscape:cx="8.1905514"
   inkscape:cy="24.272509"
   inkscape:window-x="-8"
   inkscape:window-y="-8"
   inkscape:window-maximized="1"
   inkscape:current-layer="Capa_1" />
<g
   id="g6"
   transform="scale(0.07291667)"
   style="fill:#ffffff">
	<g
   id="g4"
   style="fill:#ffffff">
		<path
   d="m 230.408,51.128 -14.976,-8.176 c -4.496,-2.464 -9.944,-2.608 -14.576,-0.4 L 166.624,58.92 125.04,34.32 c -1.776,-1.048 -3.904,-1.384 -5.888,-0.904 l -32,7.472 c -2.824,0.656 -5.072,2.792 -5.872,5.576 -0.8,2.784 -0.032,5.784 2,7.84 L 113.176,84.472 90.496,95.32 50.8,80.504 c -3.088,-1.16 -6.552,-0.304 -8.744,2.152 -2.2,2.44 -2.672,5.984 -1.208,8.92 l 23.992,48 C 66.2,142.288 68.968,144 72,144 h 24 c 1.368,0 2.712,-0.352 3.904,-1.016 l 29.936,-16.752 -1.824,25.184 c -0.208,2.864 1.144,5.624 3.528,7.224 1.344,0.904 2.896,1.36 4.456,1.36 1.224,0 2.448,-0.28 3.576,-0.84 l 32,-16 c 2.032,-1.016 3.544,-2.856 4.144,-5.056 l 9.952,-36.544 44.224,-22.072 c 5.352,-2.68 8.736,-8.056 8.848,-14.032 0.104,-5.976 -3.088,-11.472 -8.336,-14.328 z m -125.68,2.08 14.936,-3.488 29.592,17.496 -20.776,9.936 z m 70.584,35.648 c -2.04,1.016 -3.544,2.856 -4.144,5.056 l -9.952,36.544 -16.232,8.12 1.88,-25.984 c 0.208,-2.936 -1.2,-5.752 -3.688,-7.328 -1.304,-0.84 -2.792,-1.264 -4.288,-1.264 -1.344,0 -2.688,0.336 -3.904,1.016 L 93.912,128 H 76.944 l -12.704,-25.4 23.856,8.896 c 2.024,0.768 4.288,0.648 6.248,-0.272 l 35.888,-17.16 h 0.008 l 39.44,-18.856 c 0.008,0 0.008,-0.008 0.008,-0.008 l 38.064,-18.2 14.984,8.184 z"
   id="path2"
   inkscape:connector-curvature="0"
   style="fill:#ffffff" />
	</g>
</g>
<g
   id="g12"
   transform="scale(0.07291667)"
   style="fill:#ffffff">
	<g
   id="g10"
   style="fill:#ffffff">
		<path
   d="m 211.664,293.128 c -0.056,-0.072 -0.056,-0.168 -0.112,-0.232 -0.136,-0.168 -0.288,-0.312 -0.424,-0.48 -2.08,-2.616 -4.264,-5.136 -6.6,-7.52 -0.12,-0.12 -0.224,-0.256 -0.336,-0.376 -2.408,-2.432 -4.952,-4.736 -7.608,-6.904 -0.912,-0.744 -1.88,-1.4 -2.816,-2.104 -1.688,-1.28 -3.384,-2.552 -5.16,-3.72 -1.328,-0.88 -2.704,-1.672 -4.08,-2.48 -1.488,-0.88 -2.984,-1.736 -4.52,-2.536 -1.48,-0.768 -2.984,-1.488 -4.504,-2.176 -1.552,-0.704 -3.128,-1.36 -4.728,-1.984 -1.52,-0.592 -3.04,-1.168 -4.584,-1.68 -1.752,-0.584 -3.544,-1.08 -5.344,-1.56 -1.448,-0.384 -2.88,-0.8 -4.352,-1.12 -2.12,-0.464 -4.288,-0.792 -6.464,-1.112 -1.208,-0.176 -2.4,-0.424 -3.616,-0.552 C 142.984,256.216 139.52,256 136,256 c -3.52,0 -6.984,0.216 -10.408,0.592 -1.216,0.128 -2.408,0.376 -3.616,0.552 -2.176,0.32 -4.336,0.648 -6.464,1.112 -1.472,0.32 -2.904,0.736 -4.352,1.12 -1.8,0.48 -3.584,0.976 -5.344,1.56 -1.552,0.512 -3.072,1.088 -4.584,1.68 -1.6,0.624 -3.176,1.28 -4.728,1.984 -1.52,0.688 -3.024,1.408 -4.504,2.176 -1.536,0.8 -3.032,1.656 -4.52,2.536 -1.368,0.808 -2.744,1.6 -4.08,2.48 -1.776,1.168 -3.472,2.44 -5.16,3.72 -0.936,0.712 -1.904,1.36 -2.816,2.104 -2.656,2.168 -5.192,4.472 -7.608,6.904 -0.12,0.12 -0.224,0.256 -0.336,0.376 -2.336,2.384 -4.52,4.904 -6.6,7.52 -0.136,0.168 -0.288,0.312 -0.424,0.48 -0.056,0.072 -0.064,0.16 -0.112,0.232 C 47.64,309.4 40,329.808 40,352 c 0,22.84 8.048,43.816 21.408,60.312 0.048,0.064 0.056,0.152 0.104,0.216 0.096,0.12 0.208,0.216 0.304,0.336 2.048,2.496 4.224,4.888 6.512,7.16 1.104,1.104 2.296,2.088 3.44,3.128 1.288,1.16 2.552,2.336 3.896,3.432 1.376,1.12 2.816,2.144 4.248,3.176 1.232,0.888 2.456,1.776 3.728,2.608 1.504,0.984 3.032,1.896 4.584,2.784 1.328,0.768 2.672,1.504 4.04,2.208 1.544,0.792 3.096,1.552 4.672,2.256 1.512,0.68 3.056,1.288 4.608,1.888 1.512,0.584 3.008,1.168 4.552,1.672 1.776,0.584 3.584,1.064 5.4,1.544 1.4,0.368 2.776,0.776 4.2,1.08 2.152,0.464 4.36,0.792 6.56,1.104 1.144,0.168 2.272,0.4 3.432,0.528 3.4,0.36 6.832,0.568 10.312,0.568 3.48,0 6.912,-0.208 10.304,-0.576 1.152,-0.12 2.28,-0.36 3.432,-0.528 2.208,-0.32 4.408,-0.64 6.56,-1.104 1.416,-0.304 2.8,-0.712 4.2,-1.08 1.816,-0.48 3.632,-0.96 5.4,-1.544 1.536,-0.504 3.04,-1.088 4.552,-1.672 1.552,-0.6 3.096,-1.208 4.608,-1.888 1.584,-0.704 3.136,-1.464 4.672,-2.256 1.368,-0.704 2.712,-1.44 4.04,-2.208 1.552,-0.896 3.08,-1.808 4.584,-2.784 1.272,-0.832 2.496,-1.72 3.728,-2.608 1.432,-1.04 2.864,-2.056 4.248,-3.176 1.344,-1.088 2.608,-2.272 3.896,-3.432 1.152,-1.04 2.336,-2.024 3.44,-3.128 2.288,-2.28 4.464,-4.664 6.512,-7.16 0.096,-0.12 0.208,-0.216 0.304,-0.336 0.048,-0.064 0.056,-0.152 0.104,-0.216 C 223.952,395.816 232,374.84 232,352 c 0,-22.192 -7.64,-42.6 -20.336,-58.872 z M 85.408,290.104 c 0.816,-0.68 1.696,-1.272 2.544,-1.912 1.168,-0.888 2.32,-1.8 3.528,-2.616 1.576,-1.056 3.216,-2.016 4.864,-2.96 0.36,-0.208 0.704,-0.44 1.064,-0.632 -3.088,4.992 -5.856,10.552 -8.2,16.664 -3.336,-1.024 -6.552,-2.128 -9.528,-3.36 1.832,-1.832 3.744,-3.552 5.728,-5.184 z m -16.208,18 c 4.664,2.208 9.792,4.144 15.24,5.832 -2.368,9.656 -3.808,20.192 -4.24,31.272 H 56.344 c 1.152,-13.624 5.712,-26.28 12.856,-37.104 z m 1.088,89.4 C 62.96,386.952 58.112,374.584 56.576,361.2 h 23.688 c 0.584,11.048 2.248,21.456 4.768,31.024 -5.168,1.528 -10.112,3.28 -14.744,5.28 z m 26.224,23.984 c -1.576,-0.904 -3.128,-1.824 -4.632,-2.816 -0.64,-0.424 -1.264,-0.888 -1.888,-1.336 -1.432,-1.008 -2.84,-2.048 -4.2,-3.144 -0.68,-0.552 -1.344,-1.144 -2.008,-1.72 -0.832,-0.72 -1.64,-1.472 -2.448,-2.224 2.768,-1.04 5.76,-1.896 8.736,-2.768 2.144,5.272 4.6,10.112 7.312,14.504 -0.296,-0.16 -0.584,-0.336 -0.872,-0.496 z M 128,430.312 c -8.72,-3.704 -16.472,-13.328 -22.176,-26.544 7.08,-1.232 14.536,-1.92 22.176,-2.248 z m 0,-44.912 c -9.464,0.376 -18.656,1.424 -27.408,3.08 -2.216,-8.392 -3.704,-17.592 -4.288,-27.28 H 128 Z m 0,-40.2 H 96.176 c 0.432,-9.696 1.784,-18.936 3.856,-27.416 8.856,1.728 18.248,2.824 27.968,3.208 z m 0,-40.176 c -7.984,-0.352 -15.76,-1.232 -23.112,-2.576 5.776,-14.36 13.912,-24.848 23.112,-28.76 z m 74.808,3.072 c 7.144,10.832 11.696,23.48 12.856,37.104 h -23.856 c -0.432,-11.08 -1.872,-21.616 -4.24,-31.272 5.448,-1.68 10.568,-3.616 15.24,-5.832 z m -27.144,-25.48 c 1.64,0.944 3.288,1.904 4.856,2.96 1.208,0.816 2.36,1.728 3.528,2.616 0.848,0.64 1.728,1.24 2.552,1.912 1.976,1.632 3.896,3.352 5.728,5.184 -2.968,1.24 -6.192,2.336 -9.528,3.36 -2.344,-6.112 -5.112,-11.672 -8.2,-16.664 0.36,0.2 0.704,0.432 1.064,0.632 z M 144,273.688 c 9.2,3.912 17.336,14.4 23.112,28.76 -7.352,1.336 -15.128,2.224 -23.112,2.576 z m 0,47.304 c 9.72,-0.384 19.112,-1.48 27.96,-3.208 2.072,8.48 3.432,17.72 3.856,27.416 H 144 Z m 0,109.32 V 401.52 c 7.64,0.328 15.096,1.016 22.176,2.248 -5.704,13.216 -13.464,22.84 -22.176,26.544 z m 0,-44.912 v -24.2 h 31.696 c -0.584,9.68 -2.072,18.888 -4.288,27.28 -8.752,-1.656 -17.944,-2.704 -27.408,-3.08 z m 44.216,27.072 c -0.664,0.576 -1.32,1.168 -2.008,1.72 -1.36,1.104 -2.768,2.136 -4.2,3.144 -0.632,0.448 -1.248,0.904 -1.888,1.336 -1.504,1 -3.056,1.92 -4.624,2.816 -0.288,0.168 -0.584,0.336 -0.872,0.496 2.712,-4.392 5.168,-9.24 7.312,-14.504 2.976,0.872 5.96,1.728 8.736,2.768 -0.808,0.752 -1.616,1.504 -2.456,2.224 z m 13.504,-14.968 c -4.64,-2 -9.576,-3.744 -14.744,-5.28 2.52,-9.568 4.184,-19.976 4.768,-31.024 h 23.688 c -1.544,13.384 -6.392,25.752 -13.712,36.304 z"
   id="path8"
   inkscape:connector-curvature="0"
   style="fill:#ffffff" />
	</g>
</g>
<g
   id="g18"
   transform="scale(0.07291667)"
   style="fill:#ffffff">
	<g
   id="g16"
   style="fill:#ffffff">
		<path
   d="M 472,16 H 272 V 8 c 0,-4.424 -3.584,-8 -8,-8 H 8 C 3.584,0 0,3.576 0,8 v 464 c 0,4.424 3.584,8 8,8 h 256 c 4.416,0 8,-3.576 8,-8 v -8 h 200 c 4.416,0 8,-3.576 8,-8 V 24 c 0,-4.424 -3.584,-8 -8,-8 z M 256,464 H 16 V 16 H 256 Z M 464,448 H 272 V 32 h 192 z"
   id="path14"
   inkscape:connector-curvature="0"
   style="fill:#ffffff" />
	</g>
</g>
<g
   id="g24"
   transform="scale(0.07291667)"
   style="fill:#ffffff">
	<g
   id="g22"
   style="fill:#ffffff">
		<path
   d="M 200,176 H 56 c -4.408,0 -8,-3.584 -8,-8 v -8 H 32 v 8 c 0,13.232 10.768,24 24,24 h 144 c 4.408,0 8,3.584 8,8 0,4.416 -3.592,8 -8,8 h -48 c -13.232,0 -24,10.768 -24,24 v 8 h 16 v -8 c 0,-4.416 3.592,-8 8,-8 h 48 c 13.232,0 24,-10.768 24,-24 0,-13.232 -10.768,-24 -24,-24 z"
   id="path20"
   inkscape:connector-curvature="0"
   style="fill:#ffffff" />
	</g>
</g>
<g
   id="g30"
   transform="scale(0.07291667)"
   style="fill:#ffffff">
	<g
   id="g28"
   style="fill:#ffffff">
		<rect
   x="32"
   y="128"
   width="16"
   height="16"
   id="rect26"
   style="fill:#ffffff" />
	</g>
</g>
<g
   id="g36"
   transform="scale(0.07291667)"
   style="fill:#ffffff">
	<g
   id="g34"
   style="fill:#ffffff">
		<path
   d="m 360,80 c -13.232,0 -24,10.768 -24,24 0,13.232 10.768,24 24,24 13.232,0 24,-10.768 24,-24 0,-13.232 -10.768,-24 -24,-24 z m 0,32 c -4.408,0 -8,-3.584 -8,-8 0,-4.416 3.592,-8 8,-8 4.408,0 8,3.584 8,8 0,4.416 -3.592,8 -8,8 z"
   id="path32"
   inkscape:connector-curvature="0"
   style="fill:#ffffff" />
	</g>
</g>
<g
   id="g42"
   transform="scale(0.07291667)"
   style="fill:#ffffff">
	<g
   id="g40"
   style="fill:#ffffff">
		<path
   d="M 440,48 H 296 c -4.416,0 -8,3.576 -8,8 v 168 c 0,4.424 3.584,8 8,8 h 144 c 4.416,0 8,-3.576 8,-8 V 56 c 0,-4.424 -3.584,-8 -8,-8 z m -8,168 H 304 v -16 h 56 72 z M 310.952,184 328,158.424 345.048,184 Z m 63.48,0 L 400,143.096 425.568,184 Z M 432,164.104 406.784,123.76 c -2.928,-4.672 -10.64,-4.672 -13.568,0 l -33.432,53.496 -25.128,-37.688 c -2.968,-4.456 -10.344,-4.456 -13.312,0 L 304,165.576 V 64 h 128 z"
   id="path38"
   inkscape:connector-curvature="0"
   style="fill:#ffffff" />
	</g>
</g>
<g
   id="g48"
   transform="scale(0.07291667)"
   style="fill:#ffffff">
	<g
   id="g46"
   style="fill:#ffffff">
		<rect
   x="296"
   y="296"
   width="144"
   height="16"
   id="rect44"
   style="fill:#ffffff" />
	</g>
</g>
<g
   id="g54"
   transform="scale(0.07291667)"
   style="fill:#ffffff">
	<g
   id="g52"
   style="fill:#ffffff">
		<rect
   x="296.95999"
   y="336"
   width="144"
   height="16"
   id="rect50"
   style="fill:#ffffff" />
	</g>
</g>
<g
   id="g60"
   transform="scale(0.07291667)"
   style="fill:#ffffff">
	<g
   id="g58"
   style="fill:#ffffff">
		<rect
   x="296"
   y="376"
   width="144"
   height="16"
   id="rect56"
   style="fill:#ffffff" />
	</g>
</g>
<g
   id="g66"
   transform="scale(0.07291667)"
   style="fill:#ffffff">
	<g
   id="g64"
   style="fill:#ffffff">
		<rect
   x="328"
   y="416"
   width="16"
   height="16"
   id="rect62"
   style="fill:#ffffff" />
	</g>
</g>
<g
   id="g72"
   transform="scale(0.07291667)"
   style="fill:#ffffff">
	<g
   id="g70"
   style="fill:#ffffff">
		<rect
   x="360"
   y="416"
   width="16"
   height="16"
   id="rect68"
   style="fill:#ffffff" />
	</g>
</g>
<g
   id="g78"
   transform="scale(0.07291667)"
   style="fill:#ffffff">
	<g
   id="g76"
   style="fill:#ffffff">
		<rect
   x="392"
   y="416"
   width="16"
   height="16"
   id="rect74"
   style="fill:#ffffff" />
	</g>
</g>
<g
   id="g84"
   transform="scale(0.07291667)"
   style="fill:#ffffff">
	<g
   id="g82"
   style="fill:#ffffff">
		<rect
   x="320"
   y="256"
   width="96"
   height="16"
   id="rect80"
   style="fill:#ffffff" />
	</g>
</g>
<g
   id="g86"
   transform="translate(0,-445)">
</g>
<g
   id="g88"
   transform="translate(0,-445)">
</g>
<g
   id="g90"
   transform="translate(0,-445)">
</g>
<g
   id="g92"
   transform="translate(0,-445)">
</g>
<g
   id="g94"
   transform="translate(0,-445)">
</g>
<g
   id="g96"
   transform="translate(0,-445)">
</g>
<g
   id="g98"
   transform="translate(0,-445)">
</g>
<g
   id="g100"
   transform="translate(0,-445)">
</g>
<g
   id="g102"
   transform="translate(0,-445)">
</g>
<g
   id="g104"
   transform="translate(0,-445)">
</g>
<g
   id="g106"
   transform="translate(0,-445)">
</g>
<g
   id="g108"
   transform="translate(0,-445)">
</g>
<g
   id="g110"
   transform="translate(0,-445)">
</g>
<g
   id="g112"
   transform="translate(0,-445)">
</g>
<g
   id="g114"
   transform="translate(0,-445)">
</g>
</svg>